<svg xmlns="http://www.w3.org/2000/svg" version="1.1" xmlns:xlink="http://www.w3.org/1999/xlink" xmlns:svgjs="http://svgjs.dev/svgjs" width="1000" height="343" viewBox="0 0 1000 343"><g transform="matrix(1,0,0,1,-0.6060606060606233,-0.029438970922967655)"><svg viewBox="0 0 396 136" data-background-color="#f5ff00" preserveAspectRatio="xMidYMid meet" height="343" width="1000" xmlns="http://www.w3.org/2000/svg" xmlns:xlink="http://www.w3.org/1999/xlink"><g id="tight-bounds" transform="matrix(1,0,0,1,0.2400000000000091,0.011672594884913678)"><svg viewBox="0 0 395.52 135.97665481023017" height="135.97665481023017" width="395.52"><g><svg viewBox="0 0 395.52 135.97665481023017" height="135.97665481023017" width="395.52"><g><svg viewBox="0 0 395.52 135.97665481023017" height="135.97665481023017" width="395.52"><g id="textblocktransform"><svg viewBox="0 0 395.52 135.97665481023017" height="135.97665481023017" width="395.52" id="textblock"><g><rect width="395.52" height="102.07394833759591" fill="none" stroke-width="9.018103199999999" stroke="#000000" data-fill-palette-color="none" data-stroke-palette-color="tertiary"></rect><rect width="395.52" height="33.90270647263427" y="102.07394833759591" fill="#000000" data-fill-palette-color="tertiary"></rect></g><g><svg viewBox="0 0 395.52 102.07394833759591" height="102.07394833759591" width="395.52"><g transform="matrix(1,0,0,1,23.607599999999998,23.607599999999998)"><svg width="348.3048" viewBox="1 -36.099998474121094 234.5800018310547 36.94999694824219" height="54.85874833759591" data-palette-color="#000000"><path d="M5.75-11.55L5.75-17.75 5.9-26.4Q5.9-27.75 5.8-30.95L5.8-30.95Q5.75-32.4 4.55-33.2 3.35-34 2.3-34.02 1.25-34.05 1.13-34.23 1-34.4 1-34.75L1-34.75Q1-35.65 2.35-35.65L2.35-35.65 3.7-35.55 8.05-35.35 13.3-35.55Q14.15-35.55 14.15-35.05L14.15-35.05Q14.15-34.35 13.55-34.13 12.95-33.9 12.23-33.83 11.5-33.75 10.83-32.73 10.15-31.7 10.05-29.7 9.95-27.7 9.8-18.75 9.65-9.8 9.65-8.75L9.65-8.75 9.65-6.75Q9.65-3.15 10.88-2.78 12.1-2.4 13-2.4L13-2.4Q20.5-2.4 23.8-3.6L23.8-3.6Q26.8-4.7 27.4-5.9L27.4-5.9Q28.05-7.15 28.55-7.15L28.55-7.15Q29.15-7.15 29.15-6.3L29.15-6.3Q29.15-4.15 27-1.95 24.85 0.25 23.25 0.25L23.25 0.25Q19.65 0.25 15.13 0 10.6-0.25 9.5-0.25L9.5-0.25 3.25 0.15Q1.8 0.15 1.8-0.45L1.8-0.45Q1.8-0.8 2.08-1.03 2.35-1.25 2.85-1.25 3.35-1.25 4.15-1.85 4.95-2.45 5.35-4.33 5.75-6.2 5.75-11.55L5.75-11.55ZM36.1-17.25L36.1-20.1 36.15-25.5 36.15-27.8Q36.15-30 35.97-31.33 35.8-32.65 34.62-33.3 33.45-33.95 32.3-34 31.15-34.05 31.15-34.77 31.15-35.5 32.55-35.5L32.55-35.5 38.2-35.3 42.6-35.4Q43.95-35.4 43.95-34.7L43.95-34.7Q43.95-34.3 41.65-33.35L41.65-33.35Q40.05-32.7 40.05-27.6L40.05-27.6 39.9-9.1Q39.9-4.9 41.07-3.2 42.25-1.5 43.55-1.5L43.55-1.5 44.55-1.45Q44.9-1.45 45.25-1.28 45.6-1.1 45.6-0.7L45.6-0.7Q45.6 0 44.35 0L44.35 0 39.6-0.2 34.1 0.05Q31.85 0.05 31.85-0.7L31.85-0.7Q31.85-1.4 33.4-1.6L33.4-1.6Q34-1.65 34.65-2.23 35.3-2.8 35.47-3.53 35.65-4.25 35.87-9.58 36.1-14.9 36.1-17.25L36.1-17.25ZM69.3-34.45L69.3-34.45 70.45-34.85Q71.09-34.85 71.2-34.45L71.2-34.45Q72.25-28.4 72.25-27.33 72.25-26.25 71.55-26.25L71.55-26.25Q71.09-26.25 70.67-27.33 70.25-28.4 69.67-29.3 69.09-30.2 68.84-30.45 68.59-30.7 67.55-31.65L67.55-31.65Q64.84-34.05 61.37-34.05 57.9-34.05 55.8-32.55 53.7-31.05 53.7-28.65 53.7-26.25 54.92-24.8 56.15-23.35 58.2-22.55 60.25-21.75 62.5-21.05L62.5-21.05Q68.55-19.15 71.45-16.1L71.45-16.1Q73.45-13.95 73.45-10.75L73.45-10.75Q73.45-5.5 70.09-2.43 66.75 0.65 61.8 0.65L61.8 0.65Q58.34 0.65 56.25 0.28 54.15-0.1 51.95-1.25L51.95-1.25Q51.3-1.65 50.4-5.15 49.5-8.65 49.5-9.53 49.5-10.4 50.17-10.4 50.84-10.4 51-9.9L51-9.9Q52.84-5.45 55.34-3.6L55.34-3.6Q58.05-1.55 61.87-1.55 65.7-1.55 67.97-3.53 70.25-5.5 70.25-8.7L70.25-8.7Q70.25-11.05 68.7-12.63 67.15-14.2 65.15-14.9L65.15-14.9Q57.7-17.4 55.05-18.95L55.05-18.95Q50.5-21.65 50.5-26.2 50.5-30.75 53.72-33.43 56.95-36.1 62.09-36.1L62.09-36.1Q64-36.1 66.62-35.27 69.25-34.45 69.3-34.45ZM79.54-35.9Q80.19-35.9 83.62-35.7 87.04-35.5 97.09-35.5 107.14-35.5 109.24-35.8L109.24-35.8Q109.79-35.8 109.99-35.5 110.19-35.2 110.19-34.95L110.19-34.95 110.49-30.9Q110.49-29.65 110.34-29.33 110.19-29 109.69-29L109.69-29Q109.29-29 109.02-30.03 108.74-31.05 108.44-31.6L108.44-31.6Q107.69-32.9 104.09-32.9L104.09-32.9 97.59-32.9Q96.39-32.9 96.12-32.43 95.84-31.95 95.84-29.7L95.84-29.7 95.84-27.25 95.69-8.95 95.64-5.7Q95.64-3.55 96.32-2.9 96.99-2.25 97.79-1.93 98.59-1.6 99.14-1.55L99.14-1.55Q100.54-1.45 100.54-0.65L100.54-0.65Q100.54-0.1 100.29 0.05 100.04 0.2 99.34 0.2L99.34 0.2 93.79-0.2 88.69 0.15Q86.84 0.15 86.84-0.65L86.84-0.65Q86.84-1.15 87.14-1.33 87.44-1.5 88.32-1.63 89.19-1.75 89.44-1.8L89.44-1.8Q91.14-2.2 91.34-3.8L91.34-3.8Q91.84-8.2 91.84-22.7L91.84-22.7 91.79-31.65Q91.79-32.6 91.24-32.83 90.69-33.05 87.59-33.05 84.49-33.05 82.72-32.85 80.94-32.65 80.64-32.48 80.34-32.3 79.92-31.75 79.49-31.2 79.22-30.48 78.94-29.75 78.84-29.3L78.84-29.3Q78.69-28.15 77.89-28.15L77.89-28.15Q77.34-28.15 77.34-29L77.34-29Q77.34-31 77.59-32.63 77.84-34.25 77.87-34.5 77.89-34.75 77.92-34.83 77.94-34.9 77.97-35.08 77.99-35.25 78.04-35.33 78.09-35.4 78.17-35.52 78.24-35.65 78.34-35.7 78.44-35.75 78.59-35.8L78.59-35.8Q78.89-35.9 79.54-35.9ZM117.44-17.25L117.44-20.1 117.49-25.5 117.49-27.8Q117.49-30 117.32-31.33 117.14-32.65 115.97-33.3 114.79-33.95 113.64-34 112.49-34.05 112.49-34.77 112.49-35.5 113.89-35.5L113.89-35.5 119.54-35.3 123.94-35.4Q125.29-35.4 125.29-34.7L125.29-34.7Q125.29-34.3 122.99-33.35L122.99-33.35Q121.39-32.7 121.39-27.6L121.39-27.6 121.24-9.1Q121.24-4.9 122.42-3.2 123.59-1.5 124.89-1.5L124.89-1.5 125.89-1.45Q126.24-1.45 126.59-1.28 126.94-1.1 126.94-0.7L126.94-0.7Q126.94 0 125.69 0L125.69 0 120.94-0.2 115.44 0.05Q113.19 0.05 113.19-0.7L113.19-0.7Q113.19-1.4 114.74-1.6L114.74-1.6Q115.34-1.65 115.99-2.23 116.64-2.8 116.82-3.53 116.99-4.25 117.22-9.58 117.44-14.9 117.44-17.25L117.44-17.25ZM140.44 0.2L135.09 0.1 130.84 0.2Q129.74 0.2 129.74-0.6L129.74-0.6Q129.74-1.05 130.39-1.18 131.04-1.3 131.99-1.95 132.94-2.6 133.34-4.08 133.74-5.55 134.19-13.7 134.64-21.85 134.64-25.55 134.64-29.25 133.44-31.38 132.24-33.5 129.54-33.8L129.54-33.8Q128.89-33.85 128.89-34.55L128.89-34.55Q128.89-34.85 129.24-35.13 129.59-35.4 130.14-35.4L130.14-35.4 132.04-35.35 134.49-35.45Q134.94-35.45 135.54-35.18 136.14-34.9 136.24-34.68 136.34-34.45 136.79-33.93 137.24-33.4 137.99-32.55 138.74-31.7 139.34-30.9L139.34-30.9Q146.14-22.05 157.54-9.55L157.54-9.55Q157.84-9.2 158.26-8.75 158.69-8.3 158.86-8.08 159.04-7.85 159.24-7.65L159.24-7.65Q159.59-7.3 159.79-7.3L159.79-7.3Q160.29-7.3 160.29-10.4L160.29-10.4 160.29-16.25 160.19-26.5 160.19-26.85Q160.19-31.45 158.59-32.7L158.59-32.7Q157.99-33.15 157.59-33.27 157.19-33.4 156.44-33.55L156.44-33.55Q154.39-33.95 154.39-34.68 154.39-35.4 155.34-35.4L155.34-35.4 160.09-35.35Q160.09-35.35 164.59-35.45L164.59-35.45Q165.44-35.45 165.76-35.27 166.09-35.1 166.09-34.75 166.09-34.4 165.79-34.2L165.79-34.2Q165.39-33.95 164.34-33.6L164.34-33.6Q162.69-32.7 162.69-27.95L162.69-27.95 162.69-26.05 162.14-1.3 162.14-0.3Q162.14 0.85 161.44 0.85L161.44 0.85Q160.99 0.85 160.64 0.5L160.64 0.5Q144.04-18.75 140.81-22.38 137.59-26 137.24-26L137.24-26Q136.74-26 136.74-21.93 136.74-17.85 136.54-12.38 136.34-6.9 136.34-6.4L136.34-6.4Q136.34-4.15 137.11-2.98 137.89-1.8 138.79-1.65 139.69-1.5 140.46-1.33 141.24-1.15 141.24-0.63 141.24-0.1 141.06 0.05 140.89 0.2 140.44 0.2L140.44 0.2ZM196.14-18.5L201.69-18.25 205.69-18.3 206.44-18.3Q207.24-18.3 207.24-17.85L207.24-17.85Q207.24-17.5 205.96-16.95 204.69-16.4 204.54-15.55L204.54-15.55Q204.19-13.4 204.19-10.93 204.19-8.45 204.24-7.3 204.29-6.15 204.31-5.68 204.34-5.2 204.39-4.85 204.44-4.5 204.44-4.3 204.44-4.1 204.06-3.98 203.69-3.85 202.84-3.63 201.99-3.4 201.29-2.98 200.59-2.55 200.24-2.35 199.89-2.15 199.31-1.85 198.74-1.55 198.14-1.25 197.54-0.95 196.79-0.63 196.04-0.3 195.24-0.05 194.44 0.2 193.59 0.4L193.59 0.4Q191.69 0.85 189.99 0.85L189.99 0.85Q184.54 0.85 180.51-0.63 176.49-2.1 174.29-4.6L174.29-4.6Q169.99-9.55 169.99-16.45L169.99-16.45Q169.99-21.9 172.16-26.25 174.34-30.6 178.84-33.27 183.34-35.95 189.54-35.95L189.54-35.95Q195.49-35.95 199.84-33.7L199.84-33.7Q200.84-33.15 201.36-32.77 201.89-32.4 202.01-32.4 202.14-32.4 202.66-32.77 203.19-33.15 203.39-33.15L203.39-33.15Q204.14-33.15 204.16-31.93 204.19-30.7 204.36-29.1 204.54-27.5 204.69-26.45 204.84-25.4 204.84-25.2L204.84-25.2Q204.84-24.35 204.24-24.35 203.64-24.35 203.39-24.95L203.39-24.95Q201.64-28.75 197.54-31.38 193.44-34 189.09-34L189.09-34Q182.84-34 178.76-30.08 174.69-26.15 174.69-19.2L174.69-19.2Q174.69-14.6 176.39-10.55 178.09-6.5 181.56-3.85 185.04-1.2 189.21-1.2 193.39-1.2 196.51-2.95 199.64-4.7 199.99-6.95L199.99-6.95Q200.14-8.15 200.14-13.25L200.14-13.25Q200.14-15.2 199.41-15.93 198.69-16.65 197.14-16.82 195.59-17 195.41-17.32 195.24-17.65 195.24-17.95L195.24-17.95Q195.24-18.5 196.14-18.5L196.14-18.5ZM231.43-34.45L231.43-34.45 232.58-34.85Q233.23-34.85 233.33-34.45L233.33-34.45Q234.38-28.4 234.38-27.33 234.38-26.25 233.68-26.25L233.68-26.25Q233.23-26.25 232.81-27.33 232.38-28.4 231.81-29.3 231.23-30.2 230.98-30.45 230.73-30.7 229.68-31.65L229.68-31.65Q226.98-34.05 223.51-34.05 220.03-34.05 217.93-32.55 215.83-31.05 215.83-28.65 215.83-26.25 217.06-24.8 218.28-23.35 220.33-22.55 222.38-21.75 224.63-21.05L224.63-21.05Q230.68-19.15 233.58-16.1L233.58-16.1Q235.58-13.95 235.58-10.75L235.58-10.75Q235.58-5.5 232.23-2.43 228.88 0.65 223.93 0.65L223.93 0.65Q220.48 0.65 218.38 0.28 216.28-0.1 214.08-1.25L214.08-1.25Q213.43-1.65 212.53-5.15 211.63-8.65 211.63-9.53 211.63-10.4 212.31-10.4 212.98-10.4 213.13-9.9L213.13-9.9Q214.98-5.45 217.48-3.6L217.48-3.6Q220.18-1.55 224.01-1.55 227.83-1.55 230.11-3.53 232.38-5.5 232.38-8.7L232.38-8.7Q232.38-11.05 230.83-12.63 229.28-14.2 227.28-14.9L227.28-14.9Q219.83-17.4 217.18-18.95L217.18-18.95Q212.63-21.65 212.63-26.2 212.63-30.75 215.86-33.43 219.08-36.1 224.23-36.1L224.23-36.1Q226.13-36.1 228.76-35.27 231.38-34.45 231.43-34.45Z" opacity="1" transform="matrix(1,0,0,1,0,0)" fill="#000000" class="wordmark-text-0" data-fill-palette-color="primary" id="text-0"></path></svg></g></svg></g></svg></g></svg></g></svg></g><defs></defs></svg><rect width="395.52" height="135.97665481023017" fill="none" stroke="none" visibility="hidden"></rect></g></svg></g></svg>