<svg xmlns="http://www.w3.org/2000/svg" version="1.1" xmlns:xlink="http://www.w3.org/1999/xlink" xmlns:svgjs="http://svgjs.dev/svgjs" width="1000" height="1000" viewBox="0 0 1000 1000"><rect width="1000" height="1000" fill="#096a2e"></rect><g transform="matrix(0.7,0,0,0.7,149.57575757575756,460.421096563106)"><svg viewBox="0 0 396 45" data-background-color="#096a2e" preserveAspectRatio="xMidYMid meet" height="113" width="1000" xmlns="http://www.w3.org/2000/svg" xmlns:xlink="http://www.w3.org/1999/xlink"><g id="tight-bounds" transform="matrix(1,0,0,1,0.2400000000000091,0.016443168903009564)"><svg viewBox="0 0 395.52 44.967113662193974" height="44.967113662193974" width="395.52"><g><svg viewBox="0 0 456.2527475490664 51.87188804037005" height="44.967113662193974" width="395.52"><g transform="matrix(1,0,0,1,0,7.168980185029437)"><svg viewBox="0 0 395.5199999999999 37.53392767031118" height="37.53392767031118" width="395.5199999999999"><g id="textblocktransform"><svg viewBox="0 0 395.5199999999999 37.53392767031118" height="37.53392767031118" width="395.5199999999999" id="textblock"><g><svg viewBox="0 0 395.5199999999999 37.53392767031118" height="37.53392767031118" width="395.5199999999999"><g transform="matrix(1,0,0,1,0,0)"><svg width="395.5199999999999" viewBox="1.149999976158142 -32.79999923706055 356.6700134277344 33.849998474121094" height="37.53392767031118" data-palette-color="#ffffff"><path d="M15.7 0.6Q8.8 0.6 4.98-3.6 1.15-7.8 1.15-15.35L1.15-15.35Q1.15-20.75 3.1-24.68 5.05-28.6 8.75-30.7 12.45-32.8 17.5-32.8L17.5-32.8Q24.6-32.8 28.4-28.7 32.2-24.6 32.2-17L32.2-17Q32.2-11.6 30.2-7.63 28.2-3.65 24.48-1.53 20.75 0.6 15.7 0.6L15.7 0.6ZM16.85-4.55Q19.8-4.55 21.33-6.98 22.85-9.4 22.85-14.2L22.85-14.2Q22.85-20.8 21.23-23.95 19.6-27.1 16.25-27.1L16.25-27.1Q10.4-27.1 10.4-17.55L10.4-17.55Q10.4-10.95 12.03-7.75 13.65-4.55 16.85-4.55L16.85-4.55ZM34.75 0.45L35.15-3.45Q37.1-3.8 37.8-4.67 38.5-5.55 38.5-7.65L38.5-7.65 38.55-25.8Q38.55-27.35 38.22-27.93 37.9-28.5 37.05-28.5L37.05-28.5Q36.5-28.5 36-28.45 35.5-28.4 35.35-28.4L35.35-28.4 34.95-28.85 35.4-32.25 42.05-32.2Q44.2-32.2 46.72-32.3 49.25-32.4 50.25-32.45L50.25-32.45Q57.3-32.45 60.12-29.55 62.95-26.65 62.95-22.5L62.95-22.5Q62.95-19.5 61.25-16.82 59.55-14.15 56.75-12.55 53.95-10.95 50.75-10.95L50.75-10.95 46.5-10.95 46.45-7.8Q46.45-6.1 46.62-5.25 46.8-4.4 47.32-4.08 47.85-3.75 48.85-3.75L48.85-3.75Q49.5-3.75 50.07-3.8 50.65-3.85 50.85-3.85L50.85-3.85 51.05-3.5 50.55 0.2Q49.7 0.15 47.55 0.08 45.4 0 43.5 0L43.5 0Q41.85 0 38.82 0.18 35.8 0.35 34.75 0.45L34.75 0.45ZM50.6-15.55Q54.5-16.6 54.5-21.9L54.5-21.9Q54.5-24.75 52.95-26.05 51.4-27.35 48.05-27.35L48.05-27.35Q47.4-27.35 47.25-27.2 47.1-27.05 47.05-26.4L47.05-26.4Q46.75-21.95 46.6-16.1L46.6-16.1 50.6-15.55ZM90.85-10.6L91.3-10Q90.4-5.25 89.9-0.3L89.9-0.3 89.3 0.35Q80.3 0 73.55 0L73.55 0Q69 0 64.1 0.5L64.1 0.5 64.5-3.4Q66.5-3.7 67.22-4.63 67.95-5.55 67.95-7.75L67.95-7.75 68-25.8Q68-27.4 67.7-27.95 67.4-28.5 66.5-28.5L66.5-28.5Q65.75-28.5 65.05-28.4L65.05-28.4 64.6-28.95 65.05-32.35 66.15-32.35Q74.1-32.2 75.25-32.2L75.25-32.2Q86.15-32.2 90.55-32.8L90.55-32.8 91.05-32.15Q90.65-30.2 90.32-27.5 90-24.8 89.9-22.7L89.9-22.7 84.4-22.35 84.5-24.25Q84.5-25.6 84.07-26.2 83.65-26.8 82.47-27.03 81.3-27.25 78.75-27.25L78.75-27.25Q77.3-27.25 76.9-27 76.5-26.75 76.5-25.75L76.5-25.75 76.15-18.85 80.6-18.8Q81.8-18.8 86.25-19.15L86.25-19.15 86.75-18.6 86.05-13.7Q81.1-13.85 79.75-13.85L79.75-13.85Q78.7-13.85 77.5-13.73 76.3-13.6 75.95-13.55L75.95-13.55 75.85-7.7Q75.85-6.3 76.05-5.7 76.25-5.1 76.82-4.9 77.4-4.7 78.75-4.7L78.75-4.7Q81.55-4.7 82.87-5.1 84.2-5.5 84.77-6.63 85.35-7.75 85.7-10.25L85.7-10.25 90.85-10.6ZM117.89 1.05Q113.59-5.9 109.87-11.55 106.14-17.2 105.09-18.75L105.09-18.75 104.49-18.75 104.54-6.05Q104.54-4.7 104.94-4.17 105.34-3.65 106.34-3.65L106.34-3.65Q106.89-3.65 107.49-3.73 108.09-3.8 108.29-3.8L108.29-3.8 108.64-3.45 108.14 0.2Q107.34 0.15 105.27 0.08 103.19 0 101.19 0L101.19 0Q99.29 0 97.17 0.18 95.04 0.35 94.39 0.4L94.39 0.4 94.84-3.45Q96.34-3.65 97.02-4.38 97.69-5.1 97.74-6.6L97.74-6.6 98.34-25.35Q98.34-26.5 98.04-27.1 97.74-27.7 96.92-28 96.09-28.3 94.44-28.5L94.44-28.5 93.94-29.05 94.29-32.45Q94.89-32.4 96.89-32.3 98.89-32.2 100.74-32.2L100.74-32.2Q102.24-32.2 103.99-32.27 105.74-32.35 106.24-32.4L106.24-32.4Q109.79-26.45 113.89-20.08 117.99-13.7 117.99-13.8L117.99-13.8 118.59-13.8 118.49-26.3Q118.44-27.55 118.07-28 117.69-28.45 116.84-28.45L116.84-28.45 115.19-28.45 114.94-28.9 115.29-32.4Q116.09-32.35 118.22-32.27 120.34-32.2 122.49-32.2L122.49-32.2Q124.14-32.2 126.17-32.27 128.19-32.35 128.84-32.4L128.84-32.4 128.59-28.6Q126.94-28.4 126.27-27.68 125.59-26.95 125.54-25.45L125.54-25.45 124.89 0.4 117.89 1.05ZM130.54-9.3L129.94-10.05 130.39-14.55 138.39-15.45Q140.24-15.65 141.14-15.78 142.04-15.9 142.24-15.95L142.24-15.95 142.79-15.2 142.24-10.6 130.54-9.3ZM144.89 0.5L145.29-3.4Q147.19-3.7 147.89-4.63 148.59-5.55 148.59-7.75L148.59-7.75 148.59-25.9Q148.59-27.45 148.24-27.98 147.89-28.5 146.79-28.5L146.79-28.5Q146.34-28.5 145.94-28.45 145.54-28.4 145.39-28.4L145.39-28.4 145.04-28.95 145.44-32.25 152.74-32.2Q154.19-32.2 157.36-32.33 160.54-32.45 161.59-32.5L161.59-32.5 161.14-28.4Q159.39-28.2 158.56-27.9 157.74-27.6 157.44-27 157.14-26.4 157.04-25.2L157.04-25.2Q156.54-18 156.54-7.35L156.54-7.35Q156.54-5.75 157.04-5.23 157.54-4.7 159.09-4.7L159.09-4.7Q161.29-4.7 162.39-5.3 163.49-5.9 164.01-7.53 164.54-9.15 164.84-12.5L164.84-12.5 169.99-13.05 170.44-12.45Q170.29-11.45 169.89-7.83 169.49-4.2 169.19-0.25L169.19-0.25 168.59 0.4Q167.24 0.35 162.76 0.18 158.29 0 154.24 0L154.24 0Q151.29 0 148.49 0.2 145.69 0.4 144.89 0.5L144.89 0.5ZM171.54 0.35L171.94-3.3Q174.04-3.75 174.71-4.55 175.39-5.35 175.39-7.45L175.39-7.45 175.44-25.9Q175.44-27.45 175.06-27.98 174.69-28.5 173.64-28.5L173.64-28.5Q172.89-28.5 172.09-28.4L172.09-28.4 171.74-28.95 172.14-32.25 179.54-32.2Q180.94-32.2 183.99-32.35L183.99-32.35 187.29-32.5 186.99-28.7Q185.14-28.45 184.56-27.95 183.99-27.45 183.89-26L183.89-26Q183.34-15.35 183.34-7.15L183.34-7.15Q183.34-5.05 183.69-4.38 184.04-3.7 185.14-3.7L185.14-3.7Q186.29-3.7 187.04-3.85L187.04-3.85 187.34-3.45 186.89 0.2Q181.99 0 179.09 0L179.09 0Q176.69 0 171.54 0.35L171.54 0.35ZM199.58 0.6Q197.13 0.6 195.08 0.15 193.03-0.3 191.68-0.83 190.33-1.35 190.33-1.4L190.33-1.4 189.83-2.2Q189.88-2.55 190.08-3.75 190.28-4.95 190.51-6.93 190.73-8.9 190.78-10.6L190.78-10.6 195.83-10.95Q195.83-7.45 196.98-6.1 198.13-4.75 200.88-4.75L200.88-4.75Q202.88-4.75 204.08-5.58 205.28-6.4 205.28-7.85L205.28-7.85Q205.28-9.35 203.86-10.35 202.43-11.35 199.43-12.7L199.43-12.7Q199.03-12.9 198.66-13.08 198.28-13.25 197.98-13.4L197.98-13.4Q194.38-15.1 192.28-17.15 190.18-19.2 190.18-22.5L190.18-22.5Q190.18-25.5 191.98-27.85 193.78-30.2 197.01-31.5 200.23-32.8 204.38-32.8L204.38-32.8Q206.68-32.8 208.68-32.5 210.68-32.2 211.88-31.88 213.08-31.55 213.38-31.45L213.38-31.45 213.83-30.6Q213.78-30.3 213.56-29.15 213.33-28 213.03-25.98 212.73-23.95 212.58-21.95L212.58-21.95 207.93-21.6 207.43-22 207.48-23.35Q207.48-25.35 206.43-26.25 205.38-27.15 203.13-27.15L203.13-27.15Q201.33-27.15 200.18-26.33 199.03-25.5 199.03-24.15L199.03-24.15Q199.03-23.05 199.88-22.2 200.73-21.35 201.88-20.73 203.03-20.1 205.48-19L205.48-19Q208.18-17.8 209.98-16.7 211.78-15.6 213.01-13.85 214.23-12.1 214.23-9.65L214.23-9.65Q214.23-6.55 212.43-4.23 210.63-1.9 207.33-0.65 204.03 0.6 199.58 0.6L199.58 0.6ZM220.83 0.35L221.23-3.5Q223.43-3.7 224.43-4.1 225.43-4.5 225.81-5.43 226.18-6.35 226.18-8.3L226.18-8.3 226.18-27.4Q223.98-27.35 223.03-26.9 222.08-26.45 221.66-25.18 221.23-23.9 220.93-20.75L220.93-20.75 215.93-20.4Q216.33-26.25 216.43-32.15L216.43-32.15 217.03-32.75 222.43-32.2 238.03-32.2 243.58-32.75 244.13-32.15Q244.33-24.4 244.53-20.75L244.53-20.75 239.53-20.4Q239.18-23.85 238.81-25.18 238.43-26.5 237.56-26.93 236.68-27.35 234.53-27.4L234.53-27.4Q234.13-17.4 234.13-7.25L234.13-7.25Q234.13-5.4 234.76-4.63 235.38-3.85 236.83-3.85L236.83-3.85Q237.88-3.85 239.43-4L239.43-4 239.63-3.7 239.18 0.25Q231.83 0 229.88 0L229.88 0Q226.43 0 220.83 0.35L220.83 0.35ZM246.08 0.35L246.48-3.3Q248.58-3.75 249.25-4.55 249.93-5.35 249.93-7.45L249.93-7.45 249.98-25.9Q249.98-27.45 249.6-27.98 249.23-28.5 248.18-28.5L248.18-28.5Q247.43-28.5 246.63-28.4L246.63-28.4 246.28-28.95 246.68-32.25 254.08-32.2Q255.48-32.2 258.53-32.35L258.53-32.35 261.83-32.5 261.53-28.7Q259.68-28.45 259.1-27.95 258.53-27.45 258.43-26L258.43-26Q257.88-15.35 257.88-7.15L257.88-7.15Q257.88-5.05 258.23-4.38 258.58-3.7 259.68-3.7L259.68-3.7Q260.83-3.7 261.58-3.85L261.58-3.85 261.88-3.45 261.43 0.2Q256.53 0 253.63 0L253.63 0Q251.23 0 246.08 0.35L246.08 0.35ZM288.28 1.05Q283.98-5.9 280.25-11.55 276.53-17.2 275.48-18.75L275.48-18.75 274.88-18.75 274.93-6.05Q274.93-4.7 275.33-4.17 275.73-3.65 276.73-3.65L276.73-3.65Q277.28-3.65 277.88-3.73 278.48-3.8 278.68-3.8L278.68-3.8 279.03-3.45 278.53 0.2Q277.73 0.15 275.65 0.08 273.58 0 271.58 0L271.58 0Q269.68 0 267.55 0.18 265.43 0.35 264.78 0.4L264.78 0.4 265.23-3.45Q266.73-3.65 267.4-4.38 268.08-5.1 268.13-6.6L268.13-6.6 268.73-25.35Q268.73-26.5 268.43-27.1 268.13-27.7 267.3-28 266.48-28.3 264.83-28.5L264.83-28.5 264.33-29.05 264.68-32.45Q265.28-32.4 267.28-32.3 269.28-32.2 271.13-32.2L271.13-32.2Q272.63-32.2 274.38-32.27 276.13-32.35 276.63-32.4L276.63-32.4Q280.18-26.45 284.28-20.08 288.38-13.7 288.38-13.8L288.38-13.8 288.98-13.8 288.88-26.3Q288.83-27.55 288.45-28 288.08-28.45 287.23-28.45L287.23-28.45 285.58-28.45 285.33-28.9 285.68-32.4Q286.48-32.35 288.6-32.27 290.73-32.2 292.88-32.2L292.88-32.2Q294.53-32.2 296.55-32.27 298.58-32.35 299.23-32.4L299.23-32.4 298.98-28.6Q297.33-28.4 296.65-27.68 295.98-26.95 295.93-25.45L295.93-25.45 295.28 0.4 288.28 1.05ZM315.92 0.55Q311.27 0.55 307.87-1.35 304.47-3.25 302.67-6.83 300.87-10.4 300.87-15.35L300.87-15.35Q300.87-23.65 305.55-28.23 310.22-32.8 318.77-32.8L318.77-32.8Q320.77-32.8 323-32.52 325.22-32.25 326.77-31.95 328.32-31.65 328.77-31.55L328.77-31.55 329.22-30.75Q329.12-30.4 328.85-29.13 328.57-27.85 328.27-25.73 327.97-23.6 327.82-21.15L327.82-21.15 321.77-20.8Q321.77-21 321.82-21.73 321.87-22.45 321.87-23.55L321.87-23.55Q321.87-25.55 320.9-26.33 319.92-27.1 317.52-27.1L317.52-27.1Q313.62-27.1 311.87-24.75 310.12-22.4 310.12-17.1L310.12-17.1Q310.12-11.15 311.92-8.13 313.72-5.1 317.17-5.1L317.17-5.1Q318.27-5.1 319.15-5.33 320.02-5.55 320.5-5.78 320.97-6 321.07-6.1L321.07-6.1 321.07-10.15Q321.07-11.5 320.67-11.95 320.27-12.4 319.12-12.4L319.12-12.4 316.92-12.35 316.57-12.9 317.17-16.95 324.42-16.9Q326.02-16.9 327.7-17 329.37-17.1 329.87-17.15L329.87-17.15 330.27-14.8Q329.22-14.2 328.75-13.38 328.27-12.55 328.12-11.03 327.97-9.5 327.97-6.3L327.97-6.3Q327.97-3.35 328.32-2L328.32-2 327.82-1.3Q327.82-1.25 326.2-0.75 324.57-0.25 321.92 0.15 319.27 0.55 315.92 0.55L315.92 0.55ZM343.17 0.6Q340.72 0.6 338.67 0.15 336.62-0.3 335.27-0.83 333.92-1.35 333.92-1.4L333.92-1.4 333.42-2.2Q333.47-2.55 333.67-3.75 333.87-4.95 334.1-6.93 334.32-8.9 334.37-10.6L334.37-10.6 339.42-10.95Q339.42-7.45 340.57-6.1 341.72-4.75 344.47-4.75L344.47-4.75Q346.47-4.75 347.67-5.58 348.87-6.4 348.87-7.85L348.87-7.85Q348.87-9.35 347.44-10.35 346.02-11.35 343.02-12.7L343.02-12.7Q342.62-12.9 342.25-13.08 341.87-13.25 341.57-13.4L341.57-13.4Q337.97-15.1 335.87-17.15 333.77-19.2 333.77-22.5L333.77-22.5Q333.77-25.5 335.57-27.85 337.37-30.2 340.6-31.5 343.82-32.8 347.97-32.8L347.97-32.8Q350.27-32.8 352.27-32.5 354.27-32.2 355.47-31.88 356.67-31.55 356.97-31.45L356.97-31.45 357.42-30.6Q357.37-30.3 357.14-29.15 356.92-28 356.62-25.98 356.32-23.95 356.17-21.95L356.17-21.95 351.52-21.6 351.02-22 351.07-23.35Q351.07-25.35 350.02-26.25 348.97-27.15 346.72-27.15L346.72-27.15Q344.92-27.15 343.77-26.33 342.62-25.5 342.62-24.15L342.62-24.15Q342.62-23.05 343.47-22.2 344.32-21.35 345.47-20.73 346.62-20.1 349.07-19L349.07-19Q351.77-17.8 353.57-16.7 355.37-15.6 356.6-13.85 357.82-12.1 357.82-9.65L357.82-9.65Q357.82-6.55 356.02-4.23 354.22-1.9 350.92-0.65 347.62 0.6 343.17 0.6L343.17 0.6Z" opacity="1" transform="matrix(1,0,0,1,0,0)" fill="#ffffff" class="wordmark-text-0" data-fill-palette-color="primary" id="text-0"></path></svg></g></svg></g></svg></g></svg></g><g transform="matrix(1,0,0,1,404.3808595086963,0)"><svg viewBox="0 0 51.87188804037005 51.87188804037005" height="51.87188804037005" width="51.87188804037005"><g data-palette-color="#ffffff"><rect width="14.178316064367815" height="51.87188804037005" fill="#ffffff" stroke="transparent" data-fill-palette-color="accent" x="0" fill-opacity="1"></rect><rect width="14.178316064367815" height="51.87188804037005" fill="#ffffff" stroke="transparent" data-fill-palette-color="accent" x="17.290629346790016" fill-opacity="0.75"></rect><rect width="14.178316064367815" height="51.87188804037005" fill="#ffffff" stroke="transparent" data-fill-palette-color="accent" x="34.58125869358003" fill-opacity="0.5"></rect></g></svg></g></svg></g><defs></defs></svg><rect width="395.52" height="44.967113662193974" fill="none" stroke="none" visibility="hidden"></rect></g></svg></g></svg>