<svg version="1.1" xmlns="http://www.w3.org/2000/svg" xmlns:xlink="http://www.w3.org/1999/xlink" x="0px" y="0px" viewBox="0 0 1000 1000" enable-background="new 0 0 1000 1000" xml:space="preserve" width="1000" height="1000">
  <metadata> Svg Vector Icons : http://www.onlinewebfonts.com/icon </metadata>
  <g><g><path d="M499.5,702.4l23.7,11.9c2.2,1.1,4.5,1.6,6.8,1.6c5.6,0,11-3.1,13.7-8.5c3.8-7.6,0.7-16.8-6.8-20.5l-22.1-11.1v-21.1c8.4,0,15.3-6.9,15.3-15.3c0-8.5-6.9-15.3-15.3-15.3h-30.6c-8.5,0-15.3,6.9-15.3,15.3c0,8.5,6.8,15.3,15.3,15.3v21.1l-22.1,11.1c-7.6,3.8-10.6,13-6.8,20.5c2.7,5.4,8.1,8.5,13.7,8.5c2.3,0,4.6-0.5,6.8-1.6L499.5,702.4z" class="svg-elem-1"></path><path d="M407.7,547.6c-16.9,0-30.6,13.7-30.6,30.6c0,16.9,13.7,30.6,30.6,30.6c16.9,0,30.6-13.7,30.6-30.6C438.3,561.3,424.6,547.6,407.7,547.6z" class="svg-elem-2"></path><path d="M591.3,547.6c-16.9,0-30.6,13.7-30.6,30.6c0,16.9,13.7,30.6,30.6,30.6c16.9,0,30.6-13.7,30.6-30.6C621.9,561.3,608.1,547.6,591.3,547.6z" class="svg-elem-3"></path><path d="M969,252.1c-21-13.8-56.2-18.1-76.9-9.2c-88.5,37.9-229.3,146.6-264.2,174c-29.2-14.1-91.5-37.6-127.5-37.6c-0.2,0-0.3,0-0.5,0c-0.2,0-0.3,0-0.5,0c-36,0-98.3,23.5-127.5,37.6c-34.9-27.4-175.7-136.1-264.2-174c-20.7-8.9-55.9-4.7-76.9,9.2c-13.5,8.9-21,21.5-21,35.5c0,54,38.4,179.2,79.2,238.2c10.6,15.3,30.6,38.7,54.9,58.4c32.8,26.5,64.8,40,95.3,40h48.8c-3.5,8.5-3.8,15.8-1,21.8c18.1,38.5,55.1,70.3,107.1,91.8c39.8,16.5,81.1,23.9,104.8,24.1c0.1,0,0.2,0,0.3,0c0.1,0,0.2,0,0.3,0c0.1,0,0.2,0,0.3,0c0.1,0,0.2,0,0.3,0c23.7-0.2,65-7.6,104.8-24.1c52-21.5,89-53.3,107.1-91.8c2.8-6,2.5-13.3-1-21.8h49.3c65,0,126.7-64.3,150.3-98.4c40.8-58.9,79.2-184.1,79.2-238.2C990,273.6,982.6,261,969,252.1z M441,671.2c16.6-36.8,44.2-62.4,58.5-62.4c14.3,0,41.8,25.6,58.5,62.4c10.7,23.7,11.5,40.8,7.7,48c-27.5,8.4-52.3,11.9-65.9,11.9c-13.7,0-38.8-3.6-66.5-12.1C429.5,711.7,430.4,694.8,441,671.2z M885.6,508.3c-16.4,23.7-70.8,85.2-125.1,85.2h-15.8c-5-1.4-22.9-14.2-45-40.1c-22.1-25.9-32-45.8-32-51.7l-6.1-3.1c3.7-2.8,6.1-7.2,6.1-12.2v-0.3c0-8.5-6.9-15.3-15.3-15.3s-15.3,6.9-15.3,15.3v15.6c0,7.9,4,31,41.5,74.1c5.9,6.8,11.4,12.6,16.4,17.7h-11.5c-0.1,0-0.2,0-0.3,0c-3.6,0-7.2,1.1-10.1,3.6c-6.4,5.5-7.2,15.2-1.7,21.6c4.8,5.6,9.8,13.2,11.6,17.2c-17,33.4-50.3,56.4-84.7,71.3c-0.2-14.2-4.3-30.7-12.4-48.6c-9-20-21.8-39-35.9-53.6c-17-17.6-34.5-26.9-50.5-26.9S466,587.5,449,605c-14.1,14.5-26.8,33.6-35.9,53.6c-8.1,17.8-12.2,34.3-12.4,48.4c-34.2-15-67.3-37.9-84.2-71.1c1.7-4,6.7-11.4,11.6-17.2c3.9-4.5,4.8-10.9,2.3-16.4c-2.5-5.4-7.9-8.9-13.9-8.9h-12.6c5.1-5,10.5-10.9,16.4-17.7c37.5-43.1,41.5-66.2,41.5-74.1l-6.1-3.1c3.7-2.8,6.1-7.2,6.1-12.2v-0.3c0-8.5-6.9-15.3-15.3-15.3c-8.5,0-15.3,6.9-15.3,15.3v15.6c0,5.9-9.9,25.8-32,51.7c-22.1,25.9-40,38.7-45,40.1h-14.7c-54.2,0-108.7-61.5-125.1-85.2c-40-57.8-73.8-176.7-73.8-220.7c0-1.3,0-5.2,7.2-9.9c13.4-8.9,37.6-11,47.9-6.6c95.7,41,258,170.5,264.9,176c0,0,0.1,0.1,0.1,0.1c0.2,0.1,0.4,0.3,0.5,0.4c0.3,0.2,0.7,0.5,1,0.7c0.2,0.1,0.3,0.2,0.5,0.3c0.4,0.2,0.9,0.4,1.3,0.6c0.1,0,0.2,0.1,0.3,0.1c0.6,0.2,1.2,0.4,1.8,0.6c0.1,0,0.2,0,0.2,0.1c0.5,0.1,1,0.2,1.5,0.3c0.2,0,0.3,0,0.5,0.1c0.5,0.1,0.9,0.1,1.4,0.1c0.1,0,0.2,0,0.3,0c0,0,0.1,0,0.1,0c0.6,0,1.1,0,1.7-0.1c0.2,0,0.4-0.1,0.5-0.1c0.4-0.1,0.8-0.1,1.2-0.2c0.2,0,0.4-0.1,0.6-0.2c0.4-0.1,0.9-0.3,1.3-0.4c0.1,0,0.2-0.1,0.4-0.1c0.6-0.2,1.1-0.5,1.7-0.8c0,0,0,0,0,0c20.3-11.4,89.1-38.5,121.8-38.5c0.2,0,0.3,0,0.5,0c0.2,0,0.3,0,0.5,0c32.7,0,101.5,27,121.8,38.5c0,0,0,0,0.1,0c0.5,0.3,1.1,0.6,1.7,0.8c0.1,0.1,0.3,0.1,0.4,0.1c0.4,0.2,0.8,0.3,1.3,0.4c0.2,0.1,0.4,0.1,0.6,0.2c0.4,0.1,0.8,0.2,1.2,0.2c0.2,0,0.4,0.1,0.6,0.1c0.6,0.1,1.1,0.1,1.7,0.1c0,0,0.1,0,0.1,0c0.1,0,0.2,0,0.3,0c0.5,0,0.9,0,1.4-0.1c0.2,0,0.3,0,0.5-0.1c0.5-0.1,1-0.2,1.5-0.3c0.1,0,0.2,0,0.2-0.1c0.6-0.2,1.2-0.4,1.8-0.6c0.1,0,0.2-0.1,0.3-0.1c0.4-0.2,0.9-0.4,1.3-0.6c0.2-0.1,0.3-0.2,0.5-0.3c0.4-0.2,0.7-0.4,1-0.7c0.2-0.1,0.4-0.2,0.5-0.4c0,0,0.1-0.1,0.1-0.1c6.9-5.5,169.2-135,264.9-176c10.3-4.4,34.5-2.3,47.9,6.6c7.2,4.7,7.2,8.6,7.2,9.9C959.4,331.6,925.6,450.5,885.6,508.3z" class="svg-elem-4"></path></g><g></g><g></g><g></g><g></g><g></g><g></g><g></g><g></g><g></g><g></g><g></g><g></g><g></g><g></g><g></g></g>
  </svg>