<svg xmlns="http://www.w3.org/2000/svg" viewBox="0 0 1000 500"><defs/><path fill="#FFF" d="M0 0h1000v500H0z" class="svg-elem-1"/><path fill="none" stroke="#FB8604" stroke-linecap="round" stroke-linejoin="round" stroke-width="2.5" d="M390.9 180.6h1.5" class="svg-elem-2"/><path fill="none" stroke="#FB8604" stroke-dasharray="2.9234,4.8724" stroke-linecap="round" stroke-linejoin="round" stroke-width="2.5" d="M397.3 180.6h13.1" class="svg-elem-3"/><path fill="none" stroke="#FB8604" stroke-linecap="round" stroke-linejoin="round" stroke-width="2.5" d="M412.9 180.6h1.5" class="svg-elem-4"/><path fill="#FB8604" d="M286.7 144.4v-.4l4.4-10.6h-6-.2l-.1-.4v-.6-.3l.4-.2h7.3c.2 0 .3 0 .3.2l.1.3v.6l-.1.7-4.4 10.4-.2.3-.3.1h-1-.2z" class="svg-elem-5"/><path fill="#FB8604" d="M294.5 135v-.2l.4-2.5c0-.4.2-.5.5-.5h1.3l.1.3v.2l-1 2.5-.2.3H294.7h-.2zm2.9 0c-.1 0-.1-.1 0-.2l.3-2.5c0-.4.2-.6.5-.6h1.2l.2.1v.5l-1 2.5-.1.3h-1.1z" class="svg-elem-6"/><path fill="#FB8604" d="M300.3 139.7V138.8v-.3l.3-.1h5.7l.1.4V139.7l-.4.1h-5.7z" class="svg-elem-7"/><path fill="#FB8604" d="M310.7 144.4l-.1-.3v-.2l2.8-3.9-1 .1c-.8 0-1.6-.2-2.3-.6a4 4 0 01-1.4-1.5c-.4-.6-.6-1.3-.6-2s.2-1.4.6-2a4 4 0 011.5-1.7c.7-.4 1.5-.6 2.4-.6 1 0 1.8.2 2.5.6a4 4 0 011.6 1.6c.3.6.5 1.3.5 2a4 4 0 01-.4 1.8l-.9 1.6-3.5 4.9-.2.2-.4.1h-.9l-.2-.1zm3.4-6a2.6 2.6 0 001.4-2.4c0-.6-.2-1-.4-1.5l-1-1a3 3 0 00-1.5-.3 3 3 0 00-1.4.3l-1 1c-.2.4-.3 1-.3 1.5s0 1 .3 1.4l1 1 1.4.3c.6 0 1-.1 1.5-.3z" class="svg-elem-8"/><path fill="#FB8604" d="M319.2 135s-.1-.1 0-.2l.3-2.6c0-.3.2-.5.5-.5h1.2l.2.1v.5l-1 2.4-.1.3-.4.1h-.7zm2.8 0v-.2l.3-2.6c0-.3.3-.5.5-.5h1.2l.2.1v.5l-.9 2.4c0 .2-.1.3-.2.3l-.3.1h-.6-.2z" class="svg-elem-9"/><path fill="#FB8604" d="M330.9 148.1l-.1-.3v-19-.3l.4-.1H332l.1.4v19a.4.4 0 01-.4.4H331z" class="svg-elem-10"/><path fill="#FB8604" d="M342.7 144.4l-.1-.3v-10.2l-3 2.3-.3.1-.3-.1-.5-.6v-.3l.1-.3 4-3 .4-.1h1.1l.2.4V144l-.1.2-.3.2h-1l-.2-.1z" class="svg-elem-11"/><path fill="#FB8604" d="M349 144.2c-.8-.3-1.3-.8-1.7-1.3-.4-.6-.6-1.3-.6-2a3.3 3.3 0 012-3.2 3 3 0 01-1.2-1 3 3 0 01-.4-1.6 3 3 0 011.2-2.5c.8-.6 1.8-1 3-1 1.3 0 2.4.4 3.1 1a3 3 0 011.2 2.5 3 3 0 01-1.5 2.6c.6.3 1 .7 1.4 1.3.4.5.6 1.1.6 1.8 0 .8-.2 1.5-.6 2-.4.6-1 1-1.7 1.4-.7.3-1.5.4-2.4.4-1 0-1.8-.1-2.5-.4zm4.5-1.6c.6-.4.9-1 .9-1.7a2 2 0 00-.9-1.8c-.6-.4-1.3-.6-2.1-.6-.9 0-1.6.2-2.2.6a2 2 0 00-.8 1.8c0 .7.2 1.3.8 1.7.6.4 1.3.6 2.2.6.8 0 1.5-.2 2.1-.6zm-.3-6c.5-.4.8-1 .8-1.5 0-.6-.3-1.1-.8-1.5a3 3 0 00-1.8-.5 3 3 0 00-2 .5c-.4.4-.7.9-.6 1.5 0 .6.2 1.1.7 1.5a3 3 0 001.9.5c.7 0 1.3-.2 1.8-.6z" class="svg-elem-12"/><path fill="#FB8604" d="M358.4 139.7v-1-.3h.3l5.4-.1.3.1.1.3v1H358.6h-.3z" class="svg-elem-13"/><path fill="#FB8604" d="M366 144.3v-.8c0-.3.1-.6.4-.8l4-4 1.8-1.8c.3-.5.5-1 .5-1.5 0-.7-.2-1.3-.6-1.7-.4-.4-1-.6-1.8-.6-.7 0-1.3.2-1.7.7-.4.4-.7 1-.8 1.7l-.1.3h-1.2-.3v-.3c0-.6.1-1.2.4-1.8.4-.6.8-1.1 1.5-1.5.6-.4 1.3-.6 2.2-.6 1.4 0 2.4.4 3 1s1 1.7 1 2.8c0 .7-.1 1.4-.5 2-.3.6-.9 1.2-1.7 2l-3.5 3.5h5.6l.4.1v1.3l-.4.1h-8.1z" class="svg-elem-14"/><path fill="#FB8604" d="M378.5 144.1c-.7-.3-1.2-.7-1.6-1.2-.3-.4-.5-1-.5-1.5v-.2l.3-.1H378l.2.4c.1.6.5 1 1 1.2.5.3 1.1.4 1.8.4.9 0 1.6-.2 2-.6.6-.4.9-1 .8-1.8 0-1.4-.8-2.2-2.6-2.2h-2l-.1-.4v-.4c0-.2 0-.4.2-.5l3.5-4-5.4.1-.3-.1V132.3v-.4h7.8v1.4l-3.6 3.9h.3c1.2 0 2.2.4 2.9 1 .7.6 1 1.4 1 2.6 0 .8-.1 1.5-.5 2-.4.6-1 1-1.6 1.3-.7.3-1.5.5-2.4.5a6 6 0 01-2.4-.5z" class="svg-elem-15"/><path fill="#FB8604" d="M392.9 143.5a4.3 4.3 0 01-1.2-3V139c0-1.3.4-2.3 1.1-3a4 4 0 013-1.1c1 0 1.6.1 2.2.4s1 .7 1.4 1.2c.3.4.4.9.5 1.3 0 .1 0 .2-.2.3l-.3.1h-.8-.2l-.2-.3c-.2-.6-.5-1-.9-1.3-.4-.2-.8-.4-1.4-.4-.8 0-1.4.3-1.8.7-.5.5-.7 1.2-.7 2.2V140.4c0 1 .2 1.6.7 2 .4.6 1 .8 1.8.8.6 0 1-.1 1.4-.4.4-.2.7-.6.9-1.2 0-.2.1-.3.2-.3l.3-.1h.7l.3.1.2.3c0 .4-.2.9-.5 1.4-.3.4-.8.8-1.3 1.1-.6.3-1.4.5-2.2.5a4 4 0 01-3-1.1z" class="svg-elem-16"/><path fill="#FB8604" d="M402.1 144.3v-8.9a.4.4 0 01.3-.4h.8l.3.1v1c.7-.9 1.6-1.3 2.7-1.3 1.3 0 2.3.6 2.8 1.7.3-.5.7-1 1.2-1.2.6-.3 1.2-.5 1.8-.5 1 0 1.8.4 2.4 1 .7.7 1 1.7 1 3v5.2l-.1.3h-1.1a.4.4 0 01-.4-.3v-5c0-1-.2-1.7-.6-2.1a2 2 0 00-1.6-.7 2 2 0 00-1.5.7c-.4.4-.6 1-.6 2v5a.4.4 0 01-.4.5h-.8l-.3-.1v-.3l-.1-5c0-1-.2-1.7-.6-2.1a2 2 0 00-1.6-.7 2 2 0 00-1.4.7c-.5.4-.7 1-.7 2v5a.4.4 0 01-.4.5h-.8l-.3-.1z" class="svg-elem-17"/><path fill="#FB8604" d="M346.5 163.1c-.5-.3-1-.6-1.2-1-.3-.3-.5-.5-.5-.8 0 0 0-.2.2-.3h1.2l.1.1c.3.4.6.6 1 .8.3.2.8.3 1.3.3a3 3 0 001.6-.3c.4-.3.6-.6.6-1s-.1-.6-.3-.8c-.1-.2-.4-.3-.8-.5l-1.7-.5c-1-.2-1.8-.5-2.3-1s-.6-1-.6-1.6c0-.5.1-.9.4-1.3.2-.4.6-.8 1.2-1 .5-.3 1.1-.4 1.8-.4.8 0 1.4.1 2 .4s.9.5 1.2.9l.4.8-.1.3h-1l-.4-.1-.5-.5c-.1-.2-.3-.3-.6-.4l-1-.1c-.6 0-1 .1-1.3.4-.3.2-.5.5-.5 1 0 .2 0 .4.2.6.1.2.4.3.8.5l1.6.4c1.2.3 2 .6 2.4 1 .5.5.8 1 .8 1.8 0 .5-.2 1-.5 1.4a3 3 0 01-1.3 1c-.6.2-1.3.3-2 .3-.9 0-1.6-.1-2.2-.4z" class="svg-elem-18"/><path fill="#FB8604" d="M354.7 163.2l-.1-.3v-12-.2l.4-.1h1.1l.1.4v4.2c.4-.5.8-.8 1.3-1a4 4 0 011.7-.4c1.2 0 2 .4 2.7 1 .6.8 1 1.8 1 3v5.1a.4.4 0 01-.4.4h-.9a.4.4 0 01-.4-.4v-5a3 3 0 00-.6-2c-.5-.5-1-.7-1.9-.7-.7 0-1.3.2-1.8.7-.4.5-.7 1.2-.7 2v5a.4.4 0 01-.4.4h-1.1z" class="svg-elem-19"/><path fill="#FB8604" d="M366.2 162.4a4.4 4.4 0 01-1.1-3V158c0-1.3.4-2.3 1.1-3a4 4 0 013-1.1 4 4 0 013.1 1c.7.8 1.1 1.8 1.2 3a8.2 8.2 0 010 1.6c0 1.2-.5 2.2-1.2 3s-1.7 1-3 1-2.4-.3-3-1zm5-1c.4-.5.6-1.2.6-2a8 8 0 000-1.5c0-.9-.2-1.6-.7-2-.4-.5-1-.8-1.8-.8s-1.4.3-1.8.8c-.5.4-.7 1.1-.8 2v1.4c0 1 .3 1.6.8 2.1.4.5 1 .7 1.8.7s1.4-.2 1.8-.7z" class="svg-elem-20"/><path fill="#FB8604" d="M376.6 162.4c-.6-.8-1-1.7-1-3v-5c0-.2.1-.3.2-.3l.3-.2h.8a.4.4 0 01.4.5v5c0 1.8.8 2.7 2.4 2.7.8 0 1.4-.3 1.9-.8.4-.4.6-1.1.6-2v-5l.1-.2.3-.2h.9a.4.4 0 01.4.4v8.6a.4.4 0 01-.4.4h-.8a.4.4 0 01-.4-.4v-.8c-.4.4-.8.8-1.2 1a4 4 0 01-1.8.4c-1.2 0-2-.4-2.7-1.1z" class="svg-elem-21"/><path fill="#FB8604" d="M386.7 163.2l-.1-.3v-12l.1-.3H388.1l.1.3v12a.4.4 0 01-.4.4h-.8l-.3-.1z" class="svg-elem-22"/><path fill="#FB8604" d="M391.5 162.2c-.6-.8-1-1.8-1-3V158c0-1.3.4-2.3 1-3.1.6-.8 1.6-1.3 2.8-1.3s2.3.5 3 1.4v-4.2-.3l.4-.1h.8a.4.4 0 01.4.4v12a.4.4 0 01-.4.4h-.8l-.3-.1V162c-.8.9-1.8 1.4-3 1.4-1.3 0-2.3-.4-2.9-1.3zm5-1c.5-.5.7-1.2.8-2a7.8 7.8 0 000-1.4 3 3 0 00-.7-1.9c-.5-.5-1.1-.8-2-.8-.8 0-1.4.3-1.8.9-.4.5-.6 1.2-.7 2v.6c0 2.3.9 3.5 2.6 3.5.8 0 1.5-.3 1.9-.9z" class="svg-elem-23"/><path fill="#FB8604" d="M402.4 162.3a4.7 4.7 0 01-1.2-3.1V158c0-1.3.4-2.3 1.2-3.1.7-.8 1.7-1.2 3-1.2 1.2 0 2.3.4 3 1.3.7.8 1 2 1 3.4v.3a.4.4 0 01-.3.4h-6.3v.2c0 .8.3 1.5.7 2 .5.6 1 .8 1.8.8a2.6 2.6 0 002.2-1l.2-.3H409.1l.1.3c0 .3-.1.6-.5 1a4 4 0 01-1.3 1c-.6.2-1.3.3-2 .3-1.3 0-2.3-.3-3-1zm5.4-4.4a3 3 0 00-.7-2c-.4-.6-1-.9-1.8-.9s-1.4.3-1.8.8-.7 1.2-.7 2v.1h5z" class="svg-elem-24"/><path fill="#FB8604" d="M411.8 163.1l-.1-.3v-8.5-.3l.4-.1h.7l.3.1.2.3v.8c.5-.8 1.3-1.2 2.5-1.2h.7l.3.1v1.3h-1.3a2 2 0 00-1.6.7c-.4.3-.6.9-.6 1.5v5.6l-.4.2h-.8c-.1 0-.2 0-.3-.2z" class="svg-elem-25"/><g><path fill="#FB8604" d="M327 445.5V435l-3 2.4h-.3l-.3-.1-.4-.6-.1-.2.1-.3 4-3c0-.2.2-.2.4-.2h.9l.3.1V445.2a.4.4 0 01-.3.4h-1l-.2-.1z" class="svg-elem-26"/><path fill="#FB8604" d="M332.4 444.4c-.8-.9-1.1-2-1.2-3.5v-3.2c0-1.4.4-2.6 1.2-3.5s1.8-1.4 3.3-1.4c1.6 0 2.7.5 3.5 1.4.7.9 1 2 1.1 3.5a50.2 50.2 0 010 3.2 6 6 0 01-1.1 3.5c-.8 1-1.9 1.4-3.5 1.4-1.5 0-2.6-.5-3.3-1.4zm5.4-1c.5-.6.8-1.5.8-2.6a46.6 46.6 0 000-3c0-1-.3-2-.8-2.6-.4-.6-1.1-.9-2-.9-1 0-1.7.3-2.1 1-.5.5-.7 1.4-.8 2.5v3c0 1.1.3 2 .8 2.6.4.6 1.1.9 2 .9 1 0 1.7-.3 2.1-1z" class="svg-elem-27"/><path fill="#FB8604" d="M342.5 436.1v-.2l.4-2.6c0-.3.2-.5.5-.5h1.2l.2.1v.5l-1 2.4-.1.3-.4.1h-.8zm2.9 0s-.1-.1 0-.2l.3-2.6c0-.3.2-.5.5-.5h1.2l.2.1v.5l-1 2.4-.1.3-.3.1h-.8z" class="svg-elem-28"/><path fill="#FB8604" d="M348.3 440.8V440v-.3l.3-.1h5.7l.2.4v.6c0 .1 0 .2-.2.3l-.3.1h-5.4-.3z" class="svg-elem-29"/><path fill="#FB8604" d="M359.7 445.5l-.1-.3V435l-3 2.4h-.3l-.3-.1-.4-.6-.1-.2c0-.2 0-.3.2-.3l3.9-3c.1-.2.3-.2.4-.2h.9l.3.1V445.2a.4.4 0 01-.3.4h-.9l-.3-.1z" class="svg-elem-30"/><path fill="#FB8604" d="M365.7 445.2a4 4 0 01-1.6-1.6c-.4-.6-.5-1.4-.5-2.1 0-1 .4-2.2 1.2-3.3l3.4-4.8.1-.2.2-.1h1.5v.5l-2.6 3.7 1-.1c.9 0 1.6.2 2.3.6a4.2 4.2 0 012.1 3.6c0 .8-.2 1.5-.5 2.2a4 4 0 01-1.6 1.6 5 5 0 01-2.5.6 5 5 0 01-2.5-.6zm4-1.2c.4-.2.7-.6 1-1s.4-1 .4-1.5c0-.6-.1-1.1-.4-1.6s-.6-.7-1-1l-1.5-.3c-.5 0-1 .2-1.5.4s-.8.5-1 1-.4.9-.4 1.5.1 1 .4 1.5.6.8 1 1a3.3 3.3 0 003 0z" class="svg-elem-31"/><path fill="#FB8604" d="M374.6 436.1s-.1-.1 0-.2l.3-2.6c0-.3.2-.5.5-.5h1.2l.2.1v.5l-1 2.4-.1.3-.4.1h-.7zm2.8 0v-.2l.3-2.6c0-.3.3-.5.5-.5h1.2l.2.1v.5l-.9 2.4c0 .2-.1.3-.2.3l-.3.1h-.6-.2z" class="svg-elem-32"/><path fill="#FB8604" d="M386.3 449.2l-.1-.3v-19-.3l.4-.1h.6a.4.4 0 01.4.4v19a.4.4 0 01-.4.4H386.3z" class="svg-elem-33"/><path fill="#FB8604" d="M394.4 445.5l-.1-.3v-.5c0-.3.1-.6.4-.8l4-4c.8-.7 1.5-1.3 1.8-1.8s.5-1 .5-1.5c0-.7-.2-1.3-.6-1.7-.4-.4-1-.6-1.7-.6s-1.3.2-1.7.6-.7 1-.8 1.7c0 .2 0 .3-.2.3l-.3.1h-1.1l-.1-.3c0-.7.2-1.3.5-1.9.3-.6.8-1 1.4-1.4.6-.4 1.4-.6 2.3-.6 1.3 0 2.3.4 3 1 .7.8 1 1.7 1 2.7 0 .8-.2 1.5-.5 2-.4.7-1 1.3-1.7 2l-3.6 3.6h5.7l.3.1.1.3v.7l-.1.3-.3.1h-7.9l-.3-.1z" class="svg-elem-34"/><path fill="#FB8604" d="M406.8 445.3c-.6-.3-1.2-.7-1.5-1.3-.4-.5-.5-1-.6-1.7l.1-.2.3-.1h.9c.2 0 .4.1.5.4.1.6.5 1.1 1 1.4.5.3 1 .5 1.7.5.8 0 1.4-.2 2-.7s.8-1.2.8-2.1c0-.8-.3-1.4-.8-2a3 3 0 00-2-.6l-1 .1c-.4.1-.6.3-.9.5a3 3 0 01-.4.3h-1.2-.3v-.4l.5-6c0-.2.2-.4.4-.4h6.3l.3.1v1.3h-5.5l-.4 3.7a4 4 0 012.4-.6 5 5 0 012.2.5 3.8 3.8 0 012.1 3.5c0 1-.2 1.7-.6 2.3-.4.7-.9 1.2-1.6 1.5-.7.3-1.5.5-2.3.5-1 0-1.7-.2-2.4-.5z" class="svg-elem-35"/><path fill="#FB8604" d="M416 440.8c-.2 0-.2-.2-.2-.3v-.6l.1-.3.3-.1h5.7l.1.4V440.8l-.4.1h-5.4-.3z" class="svg-elem-36"/><path fill="#FB8604" d="M430.2 445.5l-.1-.3v-2.6h-5.8a.4.4 0 01-.5-.5v-.6l.2-.6 5.5-7.6.2-.2.4-.1h1.2l.4.1v8h1.7a.4.4 0 01.4.4v.6a.4.4 0 01-.4.5h-1.6v2.6a.4.4 0 01-.5.4h-.8l-.3-.1zm-4.5-4.4h4.4v-6.3l-4.4 6.3z" class="svg-elem-37"/><path fill="#FB8604" d="M438.7 445.5V435l-3.1 2.4h-.3l-.3-.1-.4-.6-.1-.2c0-.2 0-.3.2-.3l3.9-3c.1-.2.3-.2.4-.2h.9l.3.1.1.3v11.8a.4.4 0 01-.4.4h-.9l-.3-.1z" class="svg-elem-38"/><path fill="#FB8604" d="M448.2 444.7a4.3 4.3 0 01-1.1-3v-1.5c0-1.3.4-2.3 1.1-3a4 4 0 013-1.1c.9 0 1.6.1 2.2.4.6.3 1 .7 1.3 1.2.3.4.5.9.5 1.3l-.1.3-.3.1h-1.1l-.1-.3c-.3-.6-.6-1-1-1.3s-.8-.4-1.4-.4c-.7 0-1.3.3-1.8.8-.4.4-.7 1.1-.7 2v1.4c0 1 .3 1.6.7 2.1.5.5 1 .7 1.8.7.6 0 1.1-.1 1.5-.4s.6-.6.9-1.2l.1-.3.3-.1h.8l.3.1.1.3c0 .5-.2 1-.5 1.4-.3.4-.7.8-1.3 1.1-.6.3-1.3.5-2.2.5a4 4 0 01-3-1.1z" class="svg-elem-39"/><path fill="#FB8604" d="M457.5 445.5l-.1-.3v-8.5-.3l.4-.2h.7c.2 0 .3 0 .3.2l.1.3v.6c.7-.8 1.6-1.2 2.7-1.2 1.3 0 2.2.5 2.8 1.6.3-.5.7-.9 1.2-1.2.5-.3 1.1-.4 1.8-.4 1 0 1.8.3 2.4 1 .6.6 1 1.6 1 2.9v5.2a.4.4 0 01-.5.4h-.7a.4.4 0 01-.5-.4v-5c0-1-.2-1.7-.6-2.1s-.9-.6-1.5-.6-1 .2-1.5.6-.6 1.1-.6 2v5a.4.4 0 01-.4.5h-.8a.4.4 0 01-.4-.4v-5c0-1-.2-1.7-.7-2.1a2 2 0 00-1.5-.6c-.6 0-1 .2-1.5.6s-.6 1.1-.6 2v5l-.1.4-.3.1h-.8l-.3-.1z" class="svg-elem-40"/><g><path fill="none" stroke="#FB8604" stroke-linecap="round" stroke-linejoin="round" stroke-miterlimit="10" stroke-width="2" d="M484 439h100" class="svg-elem-41"/></g><g><path fill="none" stroke="#FB8604" stroke-linecap="round" stroke-linejoin="round" stroke-miterlimit="10" stroke-width="2" d="M217.4 430.9l-8.1 8.1 8.1 8.2" class="svg-elem-42"/></g><g><path fill="none" stroke="#FB8604" stroke-linecap="round" stroke-linejoin="round" stroke-miterlimit="10" stroke-width="2" d="M209.3 439H309" class="svg-elem-43"/></g><g><path fill="none" stroke="#FB8604" stroke-linecap="round" stroke-linejoin="round" stroke-miterlimit="10" stroke-width="2" d="M576 430.9l8 8.1-8 8.2" class="svg-elem-44"/></g></g><g><path fill="none" stroke="#FB8604" stroke-linecap="round" stroke-linejoin="round" stroke-width="3.3" d="M116.1 402.9h2" class="svg-elem-45"/><path fill="none" stroke="#FB8604" stroke-dasharray="4.0278,7.0486" stroke-linecap="round" stroke-linejoin="round" stroke-width="3.3" d="M125.1 402.9H908" class="svg-elem-46"/><path fill="none" stroke="#FB8604" stroke-linecap="round" stroke-linejoin="round" stroke-width="3.3" d="M911.6 402.9h2" class="svg-elem-47"/></g><g><path fill="none" stroke="#FB8604" stroke-linecap="round" stroke-linejoin="round" stroke-miterlimit="10" stroke-width="2.8" d="M812.3 140.7l5.7-.9c1.7-.2 3.4-.2 5.1-.1 3.8.1 8.3.9 12 .8 1.2 0 2.6-.2 3.6-.7l.2-.1c1.6-.9 2.5-2.2 3.5-3.5l2.3-3.3c6.8-9.4 17.5-18.4 26-26.3 4-3.7 9.3-8.6 13.6-12 2.2-1.7 4.6-3.4 7.2-4.7 3.8-1.9 8.6-3.1 12.1 0a11 11 0 012.1 2.6c.6 1 1.2 2 1.6 3.2 1.3 3.4 2.1 7 2.6 10.7.6 3.8.9 7.8.9 11.6a55.1 55.1 0 01-9 32c-4.2 6.6-9.5 12.8-14.8 18.6-2.8 3.1-9.9 10.5-12.4 13.9a29.2 29.2 0 00-4.3 8c-.7 2.1-1.7 5.4-2.6 7.5-1.2 3-2.7 6-4.4 8.7-2 3.3-4.5 6.4-7.7 8.7a20.5 20.5 0 01-5.6 2.9c-2 .7-5.2 1.4-7.3 2-1.4.4-3 .9-4 1.7-1.5 1-2.2 2.6-3.2 4-.8 1.2-1.7 2.3-2.9 3-1.6 1.1-3.4 1.6-5.2 2a33.9 33.9 0 01-17-1c-2-.9-3.6-2-5-3.5-1.7-1.7-3.2-3.8-4.8-5.5a18.7 18.7 0 00-5-3.6c-5.3-2.9-11.9-4.4-16.3-8.9-5.2-5-7.2-12.4-8.5-19.3-.5-2.7-.9-6.3-1.5-9-.2-1.1-.6-2.3-1-3.4-1.3-2.7-3.3-5-5.3-7-2.2-2.5-6-6.4-8-9a48.8 48.8 0 01-3.7-5.2 156.7 156.7 0 01-12.2-31.4c-1.2-5-2-10-2-15s.7-10.2 2.3-15c1.9-5.6 5.3-11.3 12-10.4 3.9.5 7.2 2.8 10.2 5.2 4.3 3.5 8.1 7.7 11.8 11.8l22.3 26.1c2.7 3.2 5.5 7 7.8 10.4a12.3 12.3 0 002.7 3l.2.1h.1a9.4 9.4 0 00.6.3l.2.1c.8.2 1.6.2 2.3.2l2.7-.3z" class="svg-elem-48"/><path fill="none" stroke="#FB8604" stroke-linecap="round" stroke-linejoin="round" stroke-miterlimit="10" stroke-width="2.8" d="M754.8 160.6c-11 1-23 3.7-30.7 12.1-2 2.2-3.6 4.6-4.7 7.3l-1.2 3a95 95 0 00-6.3 30.1c-.2 3.8.3 10.6.4 14.5.3 7.3.4 15.2.3 22.5a56 56 0 003.4 18.6c1.8 5.3 4.1 10.5 6.6 15.6 4 8 8.3 16.2 11.1 24.7.7 2.2 1.4 4.5 1.7 6.8.2 1.3 0 3 0 4.2-.3 13.3.8 27 .2 40.2a72 72 0 01-.6 7.3 19 19 0 01-1.2 4.5c-.6 1.5-1.6 2.7-2.7 3.8-.7.8-1.6 1.4-2.4 2-1.3 1.2-2 2.6-2.7 4a31.4 31.4 0 00-2.4 12.8 13.5 13.5 0 001 4.6v.2a7.7 7.7 0 00.5.6 9 9 0 00.8.8l.1.1c1.2.9 2.4 1.2 3.7 1.5 1.7.4 3.5.5 5.2.5h16.4a49 49 0 004.4-.3c1.3-.2 2.7-.5 3.8-1l.7-.4.2-.1a13.2 13.2 0 00.3-.3l.1-.1.2-.2v-.1l.2-.2c.6-.8 1-1.6 1.3-2.4l1-2.9a49.5 49.5 0 001-15c0-1.3-.3-2.5-.5-3.8-.3-2-.5-4.2-.6-6.2-.7-19 .9-39.4 2.2-58.4" class="svg-elem-49"/><path fill="none" stroke="#FB8604" stroke-linecap="round" stroke-linejoin="round" stroke-miterlimit="10" stroke-width="2.8" d="M748.6 225.8c-.2 7.5 0 15.1 1 22.6a62 62 0 003.5 14.3c.9 2.1 2 4.2 3.2 6.2a49.7 49.7 0 017.5 21.8 128 128 0 002.6 26l4.6 19.6c2.3 10.7 5.8 25.3 7.3 36 .2 1.4.3 2.9.2 4.3a15.7 15.7 0 01-1.9 6.7l-.9 1.6-1 2.8c-.5 2.2-.7 4.4-.7 6.6 0 2.1 0 4.4 1 6.3l.1.2a10.6 10.6 0 00.4.5l.1.2a14.7 14.7 0 00.6.5l.1.1a6 6 0 00.4.2l.2.1a6.6 6.6 0 00.3.2 4.9 4.9 0 001.8.3h26a15 15 0 002.5-.3l1.3-.5h.2l.1-.1.1-.1.2-.1.2-.2.1-.1.2-.2v-.1l.2-.2.1-.1.1-.2.1-.1v-.2l.1-.1.1-.2v-.1l.1-.2v-.1-.2c.4-2 .4-4.1.2-6.2-.2-2.1-.5-4.3-1-6.4-.4-1.4-.9-3-1.6-4.2-.5-1-1.3-1.9-1.8-2.9-1-1.8-1.7-3.7-2.3-5.7-1.2-4.1-2-8.5-2.5-12.8-.6-4.4-1-10.3-1.4-14.8-.8-8-2.4-20.6-3.1-28.6a105.4 105.4 0 01.4-25c.2-.9.5-1.8.9-2.4v-.2l.2-.1.1-.2.1-.1.2-.1.1-.1.2-.1v-.1h.2l.2-.1h.1l.2-.1c1.5-.5 2.9-.3 4.3 0l3.5.8c1.8.2 3.5.3 5.3.2 2.3 0 4.5-.5 6.8-.7a13 13 0 013.2 0l.2.1h.1l.2.1v.1l.2.1.1.2s0 0 0 0l.2.3v.1a45 45 0 01.1 6l-.3 4.2-.5 7.6c-.8 18.7-.8 41.8-1.4 60.6-.3 8.4-.3 17 1 25.4a13.7 13.7 0 003.1 7c.9.8 1.9 1.3 3 1.4 7 .2 20 0 27 0 1.2 0 2.5-.1 3.6-.6l.2-.1.2-.1.1-.1.2-.1.2-.2h.1l.2-.2.1-.2.2-.1.1-.1.1-.2.2-.2v-.1l.2-.2v-.2l.2-.2c.7-1.4.7-3 .7-4.5a25.5 25.5 0 00-2.5-11c-.9-1.6-2.2-3.1-3.6-4.3l-3-2.2c-1.2-.8-2.3-1.9-3-2.9a9.5 9.5 0 01-2-5.2c-.3-2-.3-4.2-.3-6.1a1310.6 1310.6 0 015-83 57.6 57.6 0 013-11l7.2-15a104.8 104.8 0 005.6-26.2 71 71 0 00-3.7-25.6" class="svg-elem-50"/><path fill="none" stroke="#FB8604" stroke-linecap="round" stroke-linejoin="round" stroke-miterlimit="10" stroke-width="2.8" d="M823.2 215.8a7.5 7.5 0 00-5.6-1.9c-2.5.2-4.7 2-5.8 4.2-.4.8-.7 1.6-.7 2.4v1.6l.1.2v.2l.1.1c.3.7.6 1.3 1 1.7l.2.2a8.3 8.3 0 006.5 2.2 9 9 0 004.6-1.5l.1-.1.2-.2.1-.1.2-.1.1-.2.2-.1v-.2l.2-.1.1-.2.1-.2.1-.2.1-.1v-.2l.2-.2a7 7 0 00-2-7.2z" class="svg-elem-51"/><path fill="none" stroke="#FB8604" stroke-linecap="round" stroke-linejoin="round" stroke-miterlimit="10" stroke-width="2.8" d="M472.5 174.4a51.8 51.8 0 01-19.4 16.4c-5 2.3-10.5 3.3-15.9 3.7-7.5.5-16.4-.2-24-.6-18.3-1.3-47.2-3.1-65.1-5.3-13.8-1.5-38-5.4-51.8-6.7-8.9-.8-18-1.3-26.8-.8-6.2.4-12.4 1.3-18.4 3a71 71 0 00-30.5 19.7c-8 8.2-16.8 21-23.7 30.2-2.1 2.8-4.6 6-6.9 8.6-5 5.8-12.6 14.2-17 20.3a68.7 68.7 0 00-14 48.7 16.2 16.2 0 001.8 6v.2l.2.1.1.1.2.2.1.1.2.1.1.1a4.9 4.9 0 00.4.2h.2l.2.1 1 .2h.4a102.5 102.5 0 00.4.2h.1l.2.1.1.1.1.2.2.1v.1l.2.2v.1l.2.2v.1l.6 2.1.4 2.8c.5 6.2.9 13 2.4 18.9a50.7 50.7 0 0015 24.5h.1a9.8 9.8 0 00.4.2h.2l.2.1h.1a3.7 3.7 0 00.3 0h.1l.2-.1.1-.2h.1a6.7 6.7 0 00.3-.5v-.2l.4-1.2v-.2a4.8 4.8 0 01.1-.3l.1-.1.2-.1s0 0 0 0h.4l.1.2.2.1.1.2.2.1 1 1.4c1.5 2.2 4.2 6.5 5.7 8.5a63 63 0 008.3 9.7" class="svg-elem-52"/><path fill="none" stroke="#FB8604" stroke-linecap="round" stroke-linejoin="round" stroke-miterlimit="10" stroke-width="2.8" d="M465 162.5c2 2.3 5 5 6.3 7.9a15 15 0 011.3 4.9c.3 3.2.2 8 .3 11.3 0 3.7.2 7.6 1.6 11.1a19 19 0 0011.7 11.1c6.5 2.5 14.2 3.1 20.7 5.5 3 1 5.7 2.5 8.3 4.3 3.2 2.1 6.9 5 10.6 6.2a17 17 0 0010.3.5 9 9 0 003.1-1.7c1.3-1 2.4-2.6 3.6-3.7.8-.8 1.6-1.4 2.5-2 1.2-.7 2.5-1.1 3.8-1.6 4.7-1.5 10.1-3 13.5-6.7 2-2.3 3.4-5 4.4-7.8 1.8-4.6 3.3-11.8 4.4-16.6.7-2.7 1.4-5.5 2.5-8a28 28 0 016.8-10.2c3.4-3.2 8-5.8 11.5-8.8 1.8-1.6 3.5-3.4 5-5.3a108.1 108.1 0 0016.6-30.6c2.3-6.4 3.7-13.1 4.3-19.8.4-3.8.7-7.8.7-11.6 0-2.4-.2-4.8-.6-7.1-.4-1.8-1-3.8-2-5.3a9.2 9.2 0 00-5.6-4c-2.6-.6-5.3-.4-7.8.4-1.6.5-3.1 1.3-4.6 2.2a48 48 0 00-7.4 6.2c-2.9 2.9-8.3 8.5-11.2 11.2-3.4 3.4-13.7 12.4-17.5 15.7a88.4 88.4 0 00-8.2 8.2c-1.6 1.9-3.6 5-5.8 6.1l-.1.1-.2.1h-.2l-.2.1c-1.6.6-3.3.3-4.9 0l-4.8-.8a68 68 0 00-12.3-1c-6.3 0-13 .6-19.4 1a6.3 6.3 0 01-.4 0h-.2-.1a5.5 5.5 0 01-.3-.1h-.1l-.2-.1a35.6 35.6 0 01-.3-.2l-.1-.1-.2-.1-.1-.2c-.8-.8-1.3-1.5-1.9-2.4l-3.2-5.1c-2-3-4.1-6-6.5-8.6-5.2-6-11.4-11.5-17.7-16.5-5.2-4-10.7-8-16.5-11-2-1.1-4.2-2-6.4-2.5a12 12 0 00-4.5-.3c-1 .2-2.2.6-3 1.1-1.3.8-2.4 2-3.3 3.1a23 23 0 00-3.4 7.5 42 42 0 00-1.2 13.7c.4 5.9 1.7 11.7 3.5 17.3a138.8 138.8 0 0025.1 43z" class="svg-elem-53"/><path fill="none" stroke="#FB8604" stroke-linecap="round" stroke-linejoin="round" stroke-miterlimit="10" stroke-width="2.8" d="M533.4 199.7a11.5 11.5 0 00-9.8.5l-.2.1-.1.2a8.2 8.2 0 00-.5.4l-.1.2-.2.2v.1l-.2.2v.2l-.2.2a6.3 6.3 0 00.5 6l.2.2.1.2.2.2.1.1.2.2.1.2c2.6 2.4 8 2.8 11 1a15.8 15.8 0 00.4-.2l.2-.1.1-.2a8.9 8.9 0 00.3-.2l.1-.2.2-.1v-.2l.2-.2v-.1l.2-.2c.6-1.2.6-2.4.5-3.6-.1-1.1-.4-2.1-.9-3v-.1l-.2-.2a6.6 6.6 0 00-.2-.3v-.1l-.2-.2h-.1a15 15 0 00-.3-.3l-.2-.2h-.1l-.2-.2-.9-.5z" class="svg-elem-54"/><path fill="none" stroke="#FB8604" stroke-linecap="round" stroke-linejoin="round" stroke-miterlimit="10" stroke-width="2.8" d="M403.3 271.5c-3.3 6.1-6.5 12.6-9 19.1A59.7 59.7 0 00391 301c-.3 1.7-.5 3.4-.4 5 .7 7 .6 14.3.3 21.2-.7 12-2.1 25.7-3.6 37.6-.7 5.8-1.4 12.1-1.5 18 0 1.9 0 3.8.2 5.7a50.3 50.3 0 002.3 9.4c.3 1 .6 2 1.2 2.8l.2.1.1.2.1.2a10 10 0 00.5.4 7 7 0 004.4 1.3h26.8c1.4-.2 3-.6 4-1.5h.2l.1-.2.2-.2.2-.1v-.2h.2v-.2l.2-.2v-.1l.2-.2c.5-1 .8-2 1-3 .4-2.4-.2-5-2-6.7-1.5-1.4-3.3-2-5.2-2.7a70.6 70.6 0 00-9-2.3c-.8-.3-1.5-.7-2.1-1.3l-.2-.2-.1-.1-.1-.1-.1-.2-.1-.1-.1-.2c-.9-1.3-1-2.7-1-4.1 0-1.7.2-3.4.4-5 1-4.9 2.6-9.6 4.4-14.1 3.4-8.4 8-16.6 11.6-24.9a386 386 0 004-9.3c1-2.6 2.2-5.7 3.5-8.2 1.8-3.8 4-7.6 6.9-10.6a23 23 0 019.7-5.5c2.4-.8 4.8-1.3 7.3-1.8l5.3-.8a72.4 72.4 0 0031.2-13.8 68.5 68.5 0 0011.8-11c4.5-5.2 9-11 12.9-16.7a496.9 496.9 0 0133-41.3" class="svg-elem-55"/><path fill="none" stroke="#FB8604" stroke-linecap="round" stroke-linejoin="round" stroke-miterlimit="10" stroke-width="2.8" d="M234.6 273.7c-2.3 8.6-5.3 19.1-7 27.8l-.5 3a20 20 0 01-4.5 8.2l-3.3 3a113 113 0 01-9.6 7.5c-1.2.8-2.8 1.8-3.9 2.8a16.4 16.4 0 00-5.2 9.1c-.4 1.6-.5 3.3-.6 5a260.4 260.4 0 003.4 50.5c.4 2 .9 4.2 1.7 6.2.7 1.7 1.7 3.5 3.1 4.6 1 .8 2.1 1.3 3.3 1.4 8.7.2 25.6 0 34.3 0 .6 0 1.3 0 1.8-.2h.1l.2-.1h.2a6.9 6.9 0 00.3-.2h.1l.1-.2h.2l.1-.2.2-.1.2-.1.1-.2.2-.2s0 0 0 0l.2-.2v-.2l.2-.1c.8-1.3 1-2.7 1-4.1.2-2.4-.3-4.7-1.3-6.9-.6-1.4-1.4-2.7-2.3-4a12 12 0 00-3.6-3.5c-1.2-.7-2.4-.9-3.7-1-1.7-.3-3.4-.3-5.1-.3l-4.3-.1c-1-.1-2.2-.4-3-1h-.1l-.2-.1-.1-.1-.2-.2h-.1l-.2-.2-.1-.2-.1-.1-.1-.2-.1-.2-.1-.1c-.4-.8-.5-1.5-.7-2.3a200.7 200.7 0 01-1.5-28.3c0-.5 0-1 .2-1.6.3-1.7 1-3.3 2.1-4.7 1-1.3 2-2.3 3.3-3.2 1.1-.8 2.4-1.4 3.6-2 6-2.6 12.5-4.5 18.7-6.3" class="svg-elem-56"/><path fill="none" stroke="#FB8604" stroke-linecap="round" stroke-linejoin="round" stroke-miterlimit="10" stroke-width="2.8" d="M432.8 315.6a687 687 0 009.6 35.6c2.4 7.7 5.1 15.4 8.3 22.7 2.1 5 4.5 10.1 7.2 14.8 1.4 2.4 2.9 4.8 4.5 7 1.5 2 3.1 3.8 5.1 5.2 1.4 1 3.2 1.9 4.9 2h28.5a5.3 5.3 0 002-.5h.2l.2-.1.1-.1.2-.1.2-.1.1-.2h.1a508.1 508.1 0 00.4-.5l.2-.1v-.2l.2-.1c2-3 1.5-6.8.2-10-.8-2-2-3.8-4-4.7-1.1-.5-2.2-.7-3.4-1-1.7-.2-3.5-.4-5.2-.4-1.8 0-3.6 0-5.4-.4a9.4 9.4 0 01-4.7-2.2l-.1-.2c-1-1-1.5-2-2-3a141.2 141.2 0 01-6.3-15.1 69.1 69.1 0 01-3.4-23.5c0-7.5.2-15.6 1.1-23a16 16 0 012.5-6.3c1.5-2.3 3.4-4.4 5.6-6.2 1.8-1.5 3.9-2.9 5.8-4.3 2.6-1.9 5.2-4 7.5-6.2a18 18 0 003-3.8l1.5-2.8 7.8-15.3" class="svg-elem-57"/><path fill="none" stroke="#FB8604" stroke-linecap="round" stroke-linejoin="round" stroke-miterlimit="10" stroke-width="2.8" d="M320.1 298.2c6.8 3.2 16.2 7.7 23 10.5 2.8 1 5.7 2 8.6 2.7a32 32 0 0012 .9l11.7-1.5c4.8-.7 10.7-1 15.6-1.4" class="svg-elem-58"/><path fill="none" stroke="#FB8604" stroke-linecap="round" stroke-linejoin="round" stroke-miterlimit="10" stroke-width="2.8" d="M228.4 216c-2.2 15.3-3.8 35.2 2.3 49.7.5 1.3 4.2 8.5 5 10 2.5 5 5.6 10.9 8.5 15.5 2.1 3.6 3.5 7.6 4.6 11.5 2 7.6 3.4 15.6 3.4 23.4a36.2 36.2 0 01-5.5 20c-.5 1.4-.9 2.8-1 4.2a12.3 12.3 0 001.6 7.2 320 320 0 0021.2 31.1c2.7 3.4 5.6 6.8 8.7 9.9.9.8 2 1.8 3 2.4.9.5 1.8.9 2.8 1.2 1.5.4 3 .6 4.6.7 2 .1 19.3 0 21.4 0 2.4 0 4.9 0 7.2-.3 1.7-.2 3.6-.4 5.1-1.1h.2l.1-.2h.2l.1-.2.2-.1v-.2l.2-.1.1-.2.1-.1v-.2l.2-.1v-.1-.2l.1-.1v-.2l.1-.2c.3-1.5.1-2.9-.2-4.4a19 19 0 00-1.6-4.5c-1-1.9-2.5-3.6-4.4-4.7a18.8 18.8 0 00-7.1-2 37 37 0 00-5-.3l-6.5.4c-1.6 0-3.3 0-4.8-.2H293l-.1-.1h-.2l-.1-.1-.2-.1a81.9 81.9 0 01-5.3-6.2c-3.2-4.3-6.3-8.9-9-13.5-1-2.1-2.2-4.3-3-6.5a18.8 18.8 0 01.4-12.8c1.5-4 4-7.6 7.1-10.5 2.7-2.5 5.8-4.7 8.8-6.8 3-1.9 6.1-3.7 9-5.7 4-2.7 7.9-5.7 11.1-9.3 4-4.5 6.9-10 9.4-15.3a52.1 52.1 0 005.2-23.4c-.2-3.3-.8-6.7-1.7-9.9-1.3-4.9-3.2-9.8-5.2-14.5" class="svg-elem-59"/></g><g><path fill="none" stroke="#FB8604" stroke-linecap="round" stroke-linejoin="round" stroke-miterlimit="10" stroke-width="3.5" d="M754.8 160.6c-11 1-23 3.7-30.7 12.1-2 2.2-3.6 4.6-4.7 7.3l-1.2 3a95 95 0 00-6.3 30.1c-.2 3.8.3 10.6.4 14.5.3 7.3.4 15.2.3 22.5a56 56 0 003.4 18.6c1.8 5.3 4.1 10.5 6.6 15.6 4 8 8.3 16.2 11.1 24.7.7 2.2 1.4 4.5 1.7 6.8.2 1.3 0 3 0 4.2-.3 13.3.8 27 .2 40.2a72 72 0 01-.6 7.3 19 19 0 01-1.2 4.5c-.6 1.5-1.6 2.7-2.7 3.8-.7.8-1.6 1.4-2.4 2-1.3 1.2-2 2.6-2.7 4a31.4 31.4 0 00-2.4 12.8 13.5 13.5 0 001 4.6v.2a7.7 7.7 0 00.5.6 9 9 0 00.8.8l.1.1c1.2.9 2.4 1.2 3.7 1.5 1.7.4 3.5.5 5.2.5h16.4a49 49 0 004.4-.3c1.3-.2 2.7-.5 3.8-1l.7-.4.2-.1a13.2 13.2 0 00.3-.3l.1-.1.2-.2v-.1l.2-.2c.6-.8 1-1.6 1.3-2.4l1-2.9a49.5 49.5 0 001-15c0-1.3-.3-2.5-.5-3.8-.3-2-.5-4.2-.6-6.2-.7-19 .9-39.4 2.2-58.4l1.4 7.6c2.1 9 5.8 24.9 7.7 34 1.1 5.5 2.7 12.6 3.5 18.2l.3 3.5a16 16 0 01-1.1 7c-.6 1.4-1.4 2.4-2 3.8a21 21 0 00-1.2 5.7c-.2 1.6-.3 3.3-.2 4.9 0 1.5.3 3.1 1 4.4l.1.2a10.6 10.6 0 00.4.5l.1.2a14.7 14.7 0 00.6.5l.1.1a6 6 0 00.4.2l.2.1a6.6 6.6 0 00.3.2 4.9 4.9 0 001.8.3h26a15 15 0 002.5-.3l1.3-.5h.2l.1-.1.1-.1.2-.1.2-.2.1-.1.2-.2v-.1l.2-.2.1-.1.1-.2.1-.1v-.2l.1-.1.1-.2v-.1l.1-.2v-.1-.2c.4-2 .4-4.1.2-6.2-.2-2.1-.5-4.3-1-6.4-.4-1.4-.9-3-1.6-4.2-.5-1-1.3-1.9-1.8-2.9-1-1.8-1.7-3.7-2.3-5.7-1.2-4.1-2-8.5-2.5-12.8-.6-4.4-1-10.3-1.4-14.8-.8-8-2.4-20.6-3.1-28.6a105.4 105.4 0 01.4-25c.2-.9.5-1.8.9-2.4v-.2l.2-.1.1-.2.1-.1.2-.1.1-.1.2-.1v-.1h.2l.2-.1h.1l.2-.1c1.5-.5 2.9-.3 4.3 0l3.5.8c1.8.2 3.5.3 5.3.2 2.3 0 4.5-.5 6.8-.7a13 13 0 013.2 0l.2.1h.1l.1.1.2.1.1.1.1.2s0 0 0 0l.2.3v.1l.3 2.5c0 1.1 0 2.4-.2 3.5l-.3 4.2-.5 7.5c-.8 18.8-.8 41.9-1.5 60.7-.2 8.4-.2 17 1.1 25.4a13.7 13.7 0 003.1 7c.9.8 1.9 1.3 3 1.4 7 .2 20 0 27 0 1.2 0 2.5-.1 3.6-.6l.2-.1.1-.1.2-.1.2-.1.2-.2h.1l.2-.2.1-.2.2-.1.1-.1.1-.2.1-.2.2-.1v-.2l.2-.2v-.2c.8-1.4.8-3 .8-4.5a25.5 25.5 0 00-2.5-11c-.9-1.6-2.2-3.1-3.6-4.3l-3-2.2c-1.2-.8-2.3-1.9-3-2.9a9.5 9.5 0 01-2-5.2c-.3-2-.3-4.2-.3-6.1a1310.6 1310.6 0 015-83 57.6 57.6 0 013-11l7.2-15a104.8 104.8 0 005.6-26.2 71 71 0 00-3.7-25.6c1-2 2-4 2.7-6.1.6-1.5 1.6-4.8 2.1-6.4a26.1 26.1 0 014-7.5c2.6-3.6 9.7-10.9 12.7-14.3 5-5.6 10-11.5 14.2-17.7a56 56 0 007.9-17.4 72.1 72.1 0 00-1.5-37.1c-.8-2.1-1.9-4.3-3.4-6-3.4-3.5-8.2-2.6-12.1-.8-2 1-4 2.2-5.8 3.6-3.3 2.3-6.7 5.3-9.7 8-4.8 4.4-15.6 14-20.2 18.6-4.1 4-8.3 8.4-11.7 13l-2.3 3.4c-1 1.3-2 2.7-3.4 3.4l-.1.1c-1.4.8-2.9.8-4.4.8-2.4 0-6.2-.4-8.7-.7-2.2-.2-4.5-.2-6.7 0-2.3 0-5 .6-7.3 1a11.7 11.7 0 01-4.4 0H807.1l-.1-.1h-.2l-.1-.1a9.2 9.2 0 01-.6-.4c-1.1-.8-1.8-1.8-2.6-2.9-2.3-3.5-5.1-7.2-7.8-10.4l-22.3-26A109 109 0 00762 89.3a28.8 28.8 0 00-7.3-4.6c-3.4-1.4-7-1.5-10 .8-1.7 1.4-2.8 3-3.8 4.9a35.6 35.6 0 00-3 9.9 55 55 0 000 17.4c1.1 8.3 4 16.3 7 24.1a67.4 67.4 0 009.9 18.8z" class="svg-elem-60"/><path fill="none" stroke="#FB8604" stroke-linecap="round" stroke-linejoin="round" stroke-miterlimit="10" stroke-width="3.5" d="M202.7 386.3c.5 3 1 6.4 2 9.3.4 1.5 1.2 3.2 2.1 4.4 1 1.1 2 2 3.3 2.5l1.8.4H246c.6 0 1.1-.2 1.6-.3h.1l.2-.1h.2a6.9 6.9 0 00.3-.2h.1l.1-.2h.2l.1-.2.2-.1.2-.1.1-.2.2-.2s0 0 0 0l.2-.2v-.2l.2-.1c.8-1.3 1-2.7 1-4.1.2-2.4-.3-4.7-1.3-6.9-.6-1.4-1.4-2.7-2.3-4a12 12 0 00-3.6-3.5c-1.2-.7-2.4-.9-3.7-1-1.7-.3-3.4-.3-5.1-.3l-4.3-.1c-1-.1-2.2-.4-3-1h-.1l-.2-.1-.1-.1-.2-.2h-.1l-.2-.2-.1-.2-.1-.1-.1-.2-.1-.2-.1-.1c-.4-.8-.5-1.5-.7-2.3a200.7 200.7 0 01-1.5-28.3c0-.5 0-1 .2-1.6.3-1.7 1-3.3 2.1-4.7 1-1.3 2-2.3 3.3-3.2 1.1-.8 2.4-1.4 3.6-2 6-2.6 12.5-4.5 18.7-6.3a35.1 35.1 0 01-3.7 13l-1.2 2.1a13 13 0 00.2 12.2 261.3 261.3 0 0027.9 39c1.3 1.3 2.7 2.8 4 3.9 1 .7 1.7 1 2.7 1.4 1.4.6 3 .9 4.4 1l3 .2c5.4-.1 20.8.2 26-.3 1.2 0 2.5-.2 3.7-.5.7-.1 1.7-.4 2.3-.7h.2l.1-.2h.2l.1-.2.2-.1v-.2l.2-.1.1-.2.1-.1v-.2l.2-.1v-.1-.2l.1-.1v-.2l.1-.2c.3-1.5 0-2.9-.2-4.4a19 19 0 00-1.6-4.5c-1-1.9-2.5-3.6-4.4-4.7a18.8 18.8 0 00-7.1-2 37 37 0 00-5-.3l-6.5.4c-1.6 0-3.3 0-4.8-.2H293l-.1-.1h-.2l-.1-.1-.2-.1-1.5-1.5a144.4 144.4 0 01-13.7-20c-1-1.8-1.8-3.7-2.4-5.8a18.3 18.3 0 011-12.4c1.1-2.8 2.8-5.4 4.8-7.7 3.1-3.5 7-6.3 10.8-8.9l7.8-4.8c4.4-3 8.7-6.3 12.3-10.2 3.6-4 6.3-8.8 8.6-13.7 6.8 3.2 16.2 7.7 23 10.5 2.8 1 5.7 2 8.6 2.7a32 32 0 0012 .9l11.7-1.5c4.8-.7 10.7-1 15.6-1.4.4 6 .2 12.4 0 18.4-.5 8.5-1.6 19.2-2.5 27.7-1 8.4-2.3 18.1-2.6 26.5a52 52 0 00.7 9.2 72.4 72.4 0 002 7.2 8.4 8.4 0 001.2 2.4v.2l.2.1a10 10 0 00.5.5 7 7 0 004.4 1.3h26.8c1.4-.2 3-.6 4-1.5h.2l.1-.2.2-.2.2-.1v-.2h.2v-.2l.2-.2v-.1l.2-.2c.5-1 .7-2 1-3 .4-2.4-.2-5-2-6.7-1.5-1.4-3.3-2-5.2-2.7a70.6 70.6 0 00-9-2.3c-.8-.3-1.5-.8-2.1-1.3l-.2-.2-.1-.1-.1-.1-.1-.2-.1-.1-.1-.2c-.9-1.2-1-2.6-1-4s0-3 .3-4.4a65 65 0 013.6-12.4c2.3-6 5.3-12.2 8.1-18a358 358 0 008.4-18.6c1.3-3.3 2.8-7 4.4-10a687 687 0 009.6 35.5c2.3 7.7 5 15.4 8.3 22.7 2.1 5 4.5 10.1 7.2 14.8 1.4 2.4 2.9 4.8 4.5 7 1.5 2 3.1 3.8 5 5.2 1.5 1 3.2 1.9 5 2h28.5a5.3 5.3 0 002-.5h.2l.2-.1.1-.1.2-.1.1-.1.2-.2h.1a508.1 508.1 0 00.4-.5l.2-.1v-.2l.2-.1c2-3 1.5-6.8.2-10-.8-2-2-3.8-4-4.7-1.1-.5-2.2-.7-3.4-1-1.7-.2-3.5-.4-5.2-.4-1.8 0-3.7 0-5.4-.4a9.4 9.4 0 01-4.7-2.2l-.2-.2c-.8-1-1.4-2-2-3l-2.5-5.3c-1.2-3.1-2.7-6.7-3.8-9.9a69.1 69.1 0 01-3.4-23.4c.2-7.5.3-15.6 1.2-23a16 16 0 012.4-6.3c1.5-2.3 3.5-4.4 5.7-6.2 1.8-1.5 3.9-2.9 5.8-4.3 2.6-1.9 5.2-4 7.5-6.2a18 18 0 003-3.8l1.5-2.8 7.8-15.3c3-3.5 6-7.4 8.8-11l7.2-10.2a613.3 613.3 0 0128.8-35.3l3.1-1a21 21 0 009.7-5.8c2-2.3 3.3-5 4.3-8 2-5 3.3-12.6 4.7-18 .7-2.5 1.5-5 2.6-7.5a28.2 28.2 0 019-11c2.6-2 6.2-4.4 8.6-6.5a44 44 0 005.5-5.7 100 100 0 0017.7-34.7 92.8 92.8 0 002.8-34.3c-.4-1.8-1-3.7-2-5.2a9.4 9.4 0 00-6.1-3.9c-2.6-.5-5.2-.2-7.7.7-1.5.5-3 1.3-4.4 2.2-2.6 1.7-5 3.9-7.2 6-2.8 2.9-8.2 8.5-11 11.2-3.5 3.4-13.8 12.4-17.6 15.7a88.4 88.4 0 00-8.2 8.2c-1.6 1.9-3.6 5-5.8 6.1l-.2.1h-.1l-.2.2h-.2c-1.6.6-3.3.3-5 0l-4.7-.8a68 68 0 00-12.3-1c-6.3 0-13 .6-19.4 1a6.3 6.3 0 01-.4 0h-.2-.1a5.5 5.5 0 01-.3-.1h-.1l-.2-.1a35.6 35.6 0 01-.3-.2l-.1-.1-.2-.1-.1-.2c-.8-.8-1.3-1.5-1.9-2.4l-3.3-5.1c-1.9-3-4-6-6.4-8.6-5.2-6-11.4-11.5-17.7-16.5-5.2-4-10.7-8-16.6-11-2-1.1-4-2-6.3-2.5a12 12 0 00-4.5-.3c-1 .2-2.2.6-3 1-1.4 1-2.4 2-3.3 3.2a23 23 0 00-3.4 7.5 42 42 0 00-1.2 13.7c.4 5.9 1.7 11.7 3.5 17.3a138.3 138.3 0 0025.1 43c1.9 2.1 4.6 4.7 6 7.2.7 1.5 1.2 3 1.5 4.7a51.8 51.8 0 01-19.4 16.4c-5 2.3-10.5 3.3-15.9 3.7-7.5.5-16.4-.2-24-.6-18.3-1.3-47.2-3.1-65.1-5.3-13.8-1.5-38.1-5.4-51.8-6.7-8.9-.8-18-1.3-26.9-.8-6.1.4-12.3 1.3-18.3 3a71 71 0 00-30.5 19.7c-8 8.2-16.8 21-23.7 30.2-2.1 2.8-4.6 6-7 8.6-5 5.8-12.5 14.2-16.8 20.3a68.7 68.7 0 00-14 48.7 16.2 16.2 0 001.7 6v.2l.2.1.1.1.2.2.1.1.2.1v.1a4.9 4.9 0 00.5.2h.2l.2.1 1 .2h.3a102.5 102.5 0 00.4.2h.2l.2.1v.1l.2.2.2.1v.1l.2.2v.2h.1l.1.2.6 2.1.3 2.8c.5 6.2 1 13 2.5 18.9a50.7 50.7 0 0015 24.5h.1a9.8 9.8 0 00.4.2h.2l.1.1h.2a3.7 3.7 0 00.3 0h.1l.2-.1.1-.1.1-.2a6.7 6.7 0 00.2-.4l.1-.2.4-1.2v-.2a4.8 4.8 0 01.1-.3h.1l.1-.2h.5v.2l.2.1.2.2.2.1 1 1.4c1.5 2.2 4.2 6.5 5.7 8.5 2.4 3.5 5.2 6.8 8.3 9.7z" class="svg-elem-61"/></g></svg>