<svg xmlns="http://www.w3.org/2000/svg" viewBox="0 0 1802.3 1995.8" width="1802.300048828125" height="1995.800048828125"><defs><path id="reuse-0" stroke="#000" d="M542.9 1864.6c0 11.5-5.8 20.8-12.9 20.8-7.1 0-12.9-9.3-12.9-20.8s5.8-20.8 12.9-20.8c7.1 0 12.9 9.3 12.9 20.8z" class="svg-elem-13 svg-elem-1"></path></defs><path fill="#d45500" stroke="#000" d="M10.7 95.3L3.9 74 .5 52.5l1.2-26 2.9-19 4.8-5.2L15.8.5l7 .7 7.3 2.5 16.1 6.6L70 31l128.9 128.5 59.6 72.7 111 148.5L497 555.4l101 128.3 84.8 92.9 57.6 66.7 63.6 42.4 29.3 10.1 19.2 7 31.3 20.3-457.6 338.4z" class="svg-elem-1 svg-elem-2"></path><path fill="#d45500" stroke="#000" d="M1791.6 95.3l6.8-21.4 3.4-21.4-1.2-26-2.9-19-4.8-5.2-6.4-1.8-7 .7-7.3 2.5-16.1 6.6-23.8 20.6-128.9 128.5-59.6 72.7-111 148.5-127.4 174.8-101 128.3-84.8 92.9-57.6 66.7-63.6 42.4-29.3 10.1-19.2 7-31.3 20.3 457.6 338.4z" class="svg-elem-2 svg-elem-3"></path><path fill="#d45500" stroke="#000" d="M901.9 1809.2l142.3-2.7c-1.6.7 5.6-15.8 19.4-32.5 9.7-11.9 26.1-20 42.9-28.6 89.8-36.4 171.3-101.4 208.3-193.5 11.5-28.4 21.3-56.8 23.7-85.9 5.5-64.4 13.5-130.4 46-192.6 25.8-76.8 17.9-161.8-44.3-161.3-18 .2-38.2 8.7-61.9-6.1-19.8-12.4-48.7-30.3-66.4-36.4-116.5-45.2-180.7-169.2-310-178h-1.4c-129.4 8.8-193.6 132.8-310 178-17.7 6.1-46.7 24-66.5 36.4-23.6 14.8-43.9 6.3-61.9 6.2-62.1-.5-70 84.4-44.2 161.2 32.4 62.2 40.5 128.2 45.9 192.7 2.4 29 12.3 57.4 23.8 85.8 37 92.2 118.4 157.1 208.2 193.5 16.8 8.7 33.2 16.8 43 28.6 13.8 16.7 21 33.2 19.3 32.5l142.3 2.7" class="svg-elem-3 svg-elem-4"></path><path fill="#fff" stroke="#000" d="M958.5 1988.3l14.1-3.3 20.8-8.3 20.4-12.2 11.6-13.9 2.5-8.3 4.6-19.7 4.8-49.7 5.3-54.6.5-13.1-8-46.7-12-46.5-7.5-26.8-7.6-48.2-2.8-29.3-104-.3-104 .3-2.9 29.3-7.5 48.2-7.6 26.8-11.9 46.5-8 46.7.4 13.1 5.3 54.6 4.8 49.7 4.6 19.7 2.5 8.3 11.6 14 20.5 12 20.7 8.4 14.1 3.3h57.4z" class="svg-elem-4 svg-elem-5"></path><path fill="none" stroke="#000" d="M900.3 1900.3c-13.9 1.7-20.5.9-33.7 5.6-10.3 4.3-17.1 12-23.6 20.5-5 14.5-2.2 45 1.3 59.4 17 10.4 36.9 8.2 55.8 9.6" class="svg-elem-5 svg-elem-6"></path><path fill="#fff" stroke="#000" d="M985.2 1685c4.5-9 10.2-17.7 11-28 6.9-36.3 9.8-72.3 19-108 2.1-9.8 7.7-20.4 10.8-30.3 3.1-10.2 3.8-19.7 6-29.8-21.8-17.5-41.4-40.4-69.7-47-19.8-5-40.4-5.4-60.6-7h-1c-20.3 1.6-40.9 2-60.7 7-28.3 6.6-48 29.5-69.7 47 2.2 10 3 19.6 6 29.8 3.1 9.9 8.7 20.5 11 30.2 9 35.8 12 71.8 18.8 108 .8 10.4 6.5 19 11 28l84-1.4 84.1 1.5z" class="svg-elem-6 svg-elem-7"></path><path fill="#fff" d="M762.7 1461.7c-14.4-76-41.8-159.2-96-218-24.3-35.4-64-67.1-109.4-63.4-39.5 6.3-71.2 40.6-79.2 79.2-11.7 50-1.5 101.5-2.8 152.2 1.5 75.8 15.6 156.3 66 215.9 30.3 35.2 68.6 62.8 107.5 87.6 39.7 20.6 84.6 26.7 128.4 31.9 18.4-26.1 20.4-53.2 21.6-81.5-3.5-67.2-10-135.5-36.2-204z" class="svg-elem-7 svg-elem-8"></path><path fill="#4d4d4d" stroke="#000" d="M797.4 1603.9c-15-14.8-6.8-23.9-64.2-49-14.6 7-112 9.9-180.3-119.7a307.3 307.3 0 01-66.1-65.7c18.1 5.2 37.8.8 53.5 19.3 43.8-14.4 179.9 44.4 212.1 64.6 28.5 54.1 37.7 102 45 150.5z" class="svg-elem-8 svg-elem-9"></path><path stroke="#000" d="M557.7 1386.6a56 56 0 00-17.4 2.2l-.6-.7c.5 12.4 1 24.5 8.2 35.4l9.4 19.7c64.9 116 153 118.5 173.5 112.6l.4-.7c15-3.9 36.6 1.5 44.9-15.5 2.6-7.6.5-23.4-2.8-39.2a377.2 377.2 0 00-20.9-47c-28.7-18-139.8-66.6-194.7-66.8z" class="svg-elem-9 svg-elem-10"></path><path fill="#bf9fa7" stroke="#000" d="M420.1 1279.8c-71.6-69-151-133.2-187.8-229.2-75.8-161.5-78.7-343-115.7-514.8C96 421.5 73.9 307 38.8 196.4 23 147.6-5.7 94 15.3 44c3-7 14.3-6.1 19.4-1.8C64.9 67.6 74 130.5 89.3 170.4c46.9 117 64.7 242.9 96.6 364 63.2 159.7 105 328.7 189 479.6 55.9 107.6 79.4 86.8 88.8 97.4-54.5 88.7-48.1 148-43.6 168.4z" class="svg-elem-10 svg-elem-11"></path><path fill="#fff" stroke="#000" d="M207 699.8L260 819l-60.1-62.6 68.7 122.7-46.5-41.9 57.6 81.8-62.1-43.4 75.7 95.5-51.5-9.1 49.5 35.8-55-5 104 72.7-80.8-19.7 72.2 46.5-56.6-2.5 68.2 39.3-34.3 8.6 74.2 39.4-42 9.6 49.6 14.2-15.2 20.7 28.3-1.5-12 26.2 19.1-11.6 6.3 12.2c.8-30.1 10-76.2 46.4-135.5-9.4-10.6-33 10.2-88.9-97.4-41.4-74.6-72.6-153.6-101.2-233.7L207 699.8z" class="svg-elem-11 svg-elem-12"></path><path fill="#fff" d="M647 1143.6c161 48.7 195.8 206.4 113.4 148.4-29.1-50.5-44.5-102.8-113.4-148.4z" class="svg-elem-12 svg-elem-13"></path><use class="svg-elem-13" transform="matrix(.17963 0 0 .08631 697 1717)" xlink:href="#reuse-0"></use><use class="svg-elem-14" transform="matrix(.17963 0 0 .08631 714 1741.8)" xlink:href="#reuse-0"></use><use class="svg-elem-15" transform="matrix(.17963 0 0 .08631 698.4 1738.3)" xlink:href="#reuse-0"></use><path fill="none" stroke="#000" d="M902 1900.3c13.9 1.7 20.5.9 33.8 5.6 10.2 4.3 17 12 23.5 20.5 5 14.5 2.3 45-1.2 59.4-17.1 10.4-37 8.2-55.8 9.6" class="svg-elem-16 svg-elem-14"></path><path fill="#fff" d="M1039.7 1461.7c14.4-76 41.8-159.2 96-218 24.3-35.4 64-67.1 109.3-63.4 39.5 6.3 71.2 40.6 79.3 79.2 11.6 50 1.4 101.5 2.7 152.2-1.4 75.8-15.5 156.3-65.9 215.9-30.3 35.2-68.6 62.8-107.6 87.6-39.6 20.6-84.6 26.7-128.3 31.9-18.4-26.1-20.4-53.2-21.6-81.5 3.4-67.2 10-135.5 36.1-204z" class="svg-elem-17 svg-elem-15"></path><path fill="#4d4d4d" stroke="#000" d="M1005 1603.9c15-14.8 6.8-23.9 64.1-49 14.7 7 112 9.9 180.3-119.7 23.7-18 46.5-38.3 66.2-65.7-18.2 5.2-37.8.8-53.5 19.3-43.8-14.4-180 44.4-212.2 64.6-28.4 54.1-37.7 102-45 150.5z" class="svg-elem-18 svg-elem-16"></path><path stroke="#000" d="M1244.6 1386.6a56 56 0 0117.5 2.2l.6-.7c-.6 12.4-1.1 24.5-8.3 35.4-3 6.6-6.2 13.1-9.4 19.7-64.8 116-153 118.5-173.4 112.6l-.5-.7c-15-3.9-36.6 1.5-44.8-15.5-2.6-7.6-.6-23.4 2.8-39.2a377.2 377.2 0 0120.8-47c28.7-18 139.8-66.6 194.7-66.8z" class="svg-elem-19 svg-elem-17"></path><path fill="#bf9fa7" stroke="#000" d="M1382.2 1279.8c71.6-69 151.1-133.2 187.8-229.2 75.8-161.6 78.8-343 115.8-514.8 20.5-114.3 42.7-228.8 77.8-339.5C1779.3 147.5 1808 94 1787 44.1c-3-7-14.3-6.1-19.4-1.8-30.2 25.3-39.3 88.2-54.6 128.1-47 116.9-64.7 242.9-96.7 364-63.1 159.7-105 328.6-188.9 479.6-55.9 107.6-79.4 86.8-88.8 97.4 54.5 88.6 48 148 43.5 168.4z" class="svg-elem-20 svg-elem-18"></path><path fill="#fff" stroke="#000" d="M1595.4 699.8l-53 119.2 60-62.6-68.6 122.7 46.5-41.9-57.6 81.8 62.1-43.4-75.7 95.5 51.5-9.1-49.5 35.8 55-5-104 72.7 80.8-19.7-72.2 46.5 56.5-2.6-68.1 39.4 34.3 8.6-74.3 39.4 42 9.6-49.5 14.2 15.1 20.7-28.3-1.5 12.2 26.2-19.2-11.6-6.3 12.2c-.8-30.2-10-76.2-46.4-135.5 9.4-10.6 32.9 10.2 88.8-97.4 41.5-74.6 72.7-153.5 101.2-233.6l66.7-80.6z" class="svg-elem-21 svg-elem-19"></path><path fill="#fff" d="M1155.3 1143.6c-161 48.7-195.8 206.4-113.4 148.4 29.1-50.5 44.5-102.8 113.4-148.4z" class="svg-elem-22 svg-elem-20"></path><use class="svg-elem-23" transform="matrix(-.17963 0 0 .08631 1105.4 1717)" xlink:href="#reuse-0"></use><use class="svg-elem-24" transform="matrix(-.17963 0 0 .08631 1088.3 1741.8)" xlink:href="#reuse-0"></use><use class="svg-elem-25" transform="matrix(-.17963 0 0 .08631 1104 1738.3)" xlink:href="#reuse-0"></use><path fill="#fff" stroke="#000" d="M843.2 1921c-9.1-8.2-12.7-21.3-18.9-32-10.3-17.6-13.2-38-16.2-57.9a278.3 278.3 0 01-1.2-91.6c4.6-25.5 5.7-53.5 22.3-74.9 16.4-21 45.1-26 72-23.8 26.8-2.2 55.6 2.8 72 23.8 16.5 21.4 17.7 49.4 22.3 75 5.4 30.2 3.5 61.2-1.2 91.5-3.1 20-6 40.3-16.3 58-6.2 10.6-9.7 23.7-18.9 31.9-18.3 7.5-38.3 3.3-58 3-19.6.3-39.5 4.5-57.9-3z" class="svg-elem-26 svg-elem-21"></path><path fill="#333" stroke="#000" d="M844.3 1985.8c-3.5-14.4-6.3-45-1.3-59.4a58.1 58.1 0 0123.6-20.5c13.2-4.7 19.8-4 34.6-5.7 14.7 1.8 21.3 1 34.6 5.7 10.2 4.3 17 11.9 23.5 20.5 5 14.5 2.3 45-1.2 59.4-17.1 10.3-37 8.2-57 9.5-19.9-1.3-39.7.8-56.8-9.5z" class="svg-elem-27 svg-elem-22"></path></svg>